<svg width="64" height="64" viewBox="0 0 64 64" fill="none" xmlns="http://www.w3.org/2000/svg">
<path d="M64.0007 32C64.0007 49.6731 49.6737 64 32.0004 64C14.327 64 0 49.6731 0 32C0 14.3269 14.327 0 32.0004 0C49.6737 0 64.0007 14.3269 64.0007 32Z" fill="#14CE75"/>
<path d="M18.4929 36.553L19.7754 33.3618H21.4567L19.1049 38.7546C18.9262 39.1602 18.7336 39.4937 18.5273 39.7549C18.3279 40.0161 18.1078 40.2224 17.8671 40.3736C17.6333 40.5317 17.3755 40.652 17.0936 40.7344C16.8185 40.8169 16.5159 40.8823 16.1859 40.9304L15.7939 39.6105C16.1171 39.5487 16.3888 39.4799 16.6088 39.4042C16.8357 39.3286 17.0214 39.2255 17.1658 39.0949C17.3101 38.9643 17.4271 38.7959 17.5165 38.5897L17.6155 38.3596L15.4535 33.3618H17.2379L18.4929 36.553Z" fill="white"/>
<path d="M30.757 36.553L32.0395 33.3618H33.7207L31.369 38.7546C31.1902 39.1602 30.9976 39.4936 30.7913 39.7549C30.5919 40.0161 30.3719 40.2224 30.1312 40.3736C29.8974 40.5317 29.6395 40.652 29.3576 40.7344C29.0825 40.8169 28.7799 40.8823 28.4499 40.9304L28.058 39.6105C28.3812 39.5487 28.6528 39.4799 28.8728 39.4042C29.0997 39.3286 29.2854 39.2255 29.4298 39.0949C29.5742 38.9643 29.6911 38.7959 29.7805 38.5897L29.8795 38.3596L27.7175 33.3618H29.502L30.757 36.553Z" fill="white"/>
<path fill-rule="evenodd" clip-rule="evenodd" d="M26.8586 37.3213H27.725V39.9301H26.3017V38.5897H22.805V39.9301H21.3918V37.3213H22.0209C22.1997 37.0257 22.3236 36.682 22.3924 36.2902C22.468 35.8984 22.5058 35.4034 22.5058 34.8054V33.3618H26.8586V37.3213ZM23.9292 35.2384C23.9292 35.6165 23.8914 35.9981 23.8157 36.383C23.7401 36.7611 23.6336 37.0773 23.4961 37.3317H25.2805V34.6095H23.9292V35.2384Z" fill="white"/>
<path d="M35.797 37.3008H37.3029V33.3618H38.8708V37.3008H40.3871V33.3618H41.9548V37.3008H42.8316V39.9301H41.4082V38.5897H34.2188V33.3618H35.797V37.3008Z" fill="white"/>
<path fill-rule="evenodd" clip-rule="evenodd" d="M14.9466 32.1965L12.7496 32.6193C12.4195 32.6812 12.1445 32.8049 11.9244 32.9905C11.7044 33.1692 11.5359 33.3858 11.419 33.6401C11.3089 33.8945 11.2539 34.1729 11.2539 34.4754V34.5765C11.2998 34.4909 11.3513 34.409 11.4086 34.331C11.5805 34.0904 11.8041 33.9014 12.0792 33.7639C12.3542 33.6196 12.6809 33.5474 13.059 33.5474C13.4854 33.5474 13.8636 33.6471 14.1937 33.8464C14.5306 34.0458 14.7953 34.3345 14.9879 34.7126C15.1804 35.0838 15.2766 35.5272 15.2766 36.0428C15.2766 36.5858 15.1598 37.0568 14.9261 37.4555C14.6991 37.8542 14.3793 38.1634 13.9667 38.3834C13.561 38.5965 13.0831 38.7031 12.533 38.7031C11.6597 38.7031 10.9652 38.4556 10.4494 37.9606C9.93371 37.4588 9.67579 36.7199 9.67578 35.7437V34.8672C9.67578 33.8636 9.91995 33.0593 10.4082 32.4544C10.9033 31.8495 11.6287 31.4542 12.5845 31.2685L14.5031 30.887L14.9466 32.1965ZM12.471 34.7951C12.1272 34.7951 11.8557 34.9085 11.6562 35.1354C11.4637 35.3553 11.3674 35.6784 11.3673 36.1046C11.3673 36.5514 11.4637 36.8883 11.6562 37.1152C11.8557 37.3351 12.1307 37.4451 12.4814 37.4451C12.8321 37.4451 13.1038 37.3385 13.2963 37.1254C13.4888 36.9054 13.5851 36.572 13.5851 36.1253C13.5851 35.6853 13.4854 35.3553 13.286 35.1354C13.0934 34.9085 12.8217 34.7951 12.471 34.7951Z" fill="white"/>
<path fill-rule="evenodd" clip-rule="evenodd" d="M45.9477 33.2484C46.4771 33.2484 46.9172 33.3618 47.2679 33.5887C47.6186 33.8086 47.8799 34.1214 48.0518 34.527C48.2306 34.9257 48.32 35.3862 48.32 35.9086V36.2902H44.9404C44.9782 36.6384 45.0938 36.9065 45.2875 37.0945C45.5281 37.3213 45.872 37.4348 46.319 37.4348C46.6009 37.4348 46.8622 37.4039 47.1028 37.342C47.3504 37.2733 47.5876 37.1632 47.8145 37.012L48.2684 38.1257C48.0071 38.3113 47.7045 38.4557 47.3607 38.5588C47.0237 38.655 46.6593 38.7031 46.2673 38.7031C45.339 38.7031 44.6135 38.4591 44.0909 37.971C43.5752 37.4829 43.3173 36.8161 43.3173 35.9706C43.3173 35.4344 43.4273 34.9635 43.6474 34.5579C43.8674 34.1454 44.1735 33.8257 44.5654 33.5989C44.9642 33.3652 45.4251 33.2484 45.9477 33.2484ZM45.9682 34.3723C45.6313 34.3723 45.3733 34.496 45.1946 34.7435C45.0658 34.9217 44.9838 35.1623 44.9478 35.4653H46.9032C46.8857 35.1243 46.8045 34.8631 46.6593 34.6817C46.5012 34.4754 46.2708 34.3723 45.9682 34.3723Z" fill="white"/>
<path fill-rule="evenodd" clip-rule="evenodd" d="M51.7069 33.2484C52.2364 33.2484 52.6765 33.3618 53.0272 33.5887C53.3779 33.8086 53.6393 34.1214 53.8112 34.527C53.9899 34.9257 54.0794 35.3862 54.0794 35.9086V36.2902H50.6997C50.7376 36.6384 50.8532 36.9065 51.0468 37.0945C51.2875 37.3213 51.6313 37.4348 52.0782 37.4348C52.3601 37.4348 52.6215 37.4039 52.8622 37.342C53.1098 37.2733 53.347 37.1632 53.5739 37.012L54.0277 38.1257C53.7664 38.3113 53.4639 38.4557 53.12 38.5588C52.7831 38.655 52.4187 38.7031 52.0267 38.7031C51.0984 38.7031 50.3729 38.4591 49.8502 37.971C49.3345 37.4829 49.0767 36.8161 49.0767 35.9706C49.0767 35.4344 49.1867 34.9635 49.4067 34.5579C49.6268 34.1454 49.9328 33.8257 50.3248 33.5989C50.7236 33.3652 51.1843 33.2484 51.7069 33.2484ZM51.7276 34.3723C51.3907 34.3723 51.1327 34.496 50.9539 34.7435C50.8252 34.9217 50.743 35.1623 50.707 35.4653H52.6626C52.6451 35.1243 52.5638 34.8631 52.4186 34.6817C52.2604 34.4754 52.0301 34.3723 51.7276 34.3723Z" fill="white"/>
<path d="M31.6328 28.8511H29.9515V24.9018H28.6416V25.5205C28.6415 26.2148 28.5624 26.806 28.4043 27.2941C28.2461 27.7821 28.0054 28.1705 27.6822 28.4592C27.359 28.7411 26.943 28.9266 26.4342 29.016L25.9494 27.6858C26.1626 27.6308 26.3414 27.5484 26.4858 27.4384C26.6371 27.3284 26.7573 27.1874 26.8467 27.0156C26.943 26.8369 27.0118 26.6203 27.0531 26.366C27.0943 26.1116 27.1149 25.8091 27.1149 25.4586V23.6232H31.6328V28.8511Z" fill="white"/>
<path fill-rule="evenodd" clip-rule="evenodd" d="M35.242 23.5098C35.7715 23.5098 36.2116 23.6232 36.5623 23.85C36.913 24.07 37.1742 24.3828 37.3462 24.7884C37.5249 25.187 37.6143 25.6476 37.6144 26.17V26.5515H34.2349C34.2727 26.8997 34.3882 27.1678 34.5818 27.3559C34.8225 27.5827 35.1664 27.6961 35.6133 27.6961C35.8952 27.6961 36.1565 27.6653 36.3972 27.6034C36.6448 27.5347 36.8821 27.4246 37.109 27.2734L37.5629 28.387C37.3016 28.5726 36.999 28.7171 36.6552 28.8202C36.3182 28.9164 35.9537 28.9645 35.5617 28.9645C34.6334 28.9645 33.908 28.7204 33.3854 28.2324C32.8696 27.7443 32.6117 27.0775 32.6117 26.232C32.6117 25.6958 32.7218 25.2248 32.9419 24.8193C33.1619 24.4068 33.4678 24.0871 33.8598 23.8603C34.2586 23.6265 34.7194 23.5098 35.242 23.5098ZM35.2626 24.6337C34.9257 24.6337 34.6678 24.7574 34.4891 25.0049C34.3603 25.1831 34.2782 25.4237 34.2421 25.7267H36.1977C36.1802 25.3857 36.0989 25.1245 35.9537 24.943C35.7955 24.7368 35.5652 24.6337 35.2626 24.6337Z" fill="white"/>
<path fill-rule="evenodd" clip-rule="evenodd" d="M18.4193 22.9219H14.6441V24.4686H16.5833C17.3947 24.4686 18.0308 24.6577 18.4915 25.0358C18.9522 25.407 19.1826 25.9467 19.1826 26.6548C19.1826 27.3628 18.9522 27.9059 18.4915 28.284C18.0308 28.662 17.3947 28.8511 16.5833 28.8511H12.9628V21.5815H18.4193V22.9219ZM14.6441 27.5313H16.3564C16.7621 27.5312 17.0543 27.459 17.233 27.3146C17.4187 27.1703 17.5116 26.9503 17.5116 26.6548C17.5116 26.3592 17.4187 26.1426 17.233 26.0051C17.0543 25.8608 16.7621 25.7886 16.3564 25.7886H14.6441V27.5313Z" fill="white"/>
<path d="M21.557 26.6759L23.8675 23.6232H25.2496V28.8511H23.7231V25.8009L21.4126 28.8511H20.0304V23.6232H21.557V26.6759Z" fill="white"/>
<path d="M43.1159 24.9327H41.4036V28.8511H39.7223V24.9327H38.0203V23.6232H43.1159V24.9327Z" fill="white"/>
<path fill-rule="evenodd" clip-rule="evenodd" d="M48.9841 23.6232C49.6855 23.6232 50.1876 23.7469 50.4902 23.9944C50.7996 24.235 50.9542 24.565 50.9542 24.9843C50.9542 25.3074 50.8477 25.5789 50.6345 25.7988C50.4984 25.9394 50.3326 26.0474 50.1375 26.1234C50.4264 26.1918 50.6506 26.3102 50.8098 26.4794C51.0368 26.7131 51.1502 27.0122 51.1502 27.3766C51.1502 27.8303 50.9714 28.1911 50.6138 28.4592C50.2631 28.7204 49.7509 28.8511 49.077 28.8511H45.9619V23.6232H48.9841ZM47.5195 27.8612H48.8604C49.108 27.8612 49.2971 27.8131 49.4277 27.7168C49.5584 27.6137 49.6237 27.4625 49.6237 27.2631C49.6237 27.0638 49.5584 26.9159 49.4277 26.8197C49.2971 26.7234 49.108 26.6753 48.8604 26.6753H47.5195V27.8612ZM47.5195 25.6854H48.747C48.967 25.6854 49.1354 25.6408 49.2523 25.5514C49.3692 25.4552 49.4277 25.3177 49.4277 25.139C49.4277 24.9602 49.3692 24.8261 49.2523 24.7367C49.1354 24.6474 48.967 24.6028 48.747 24.6028H47.5195V25.6854Z" fill="white"/>
<path fill-rule="evenodd" clip-rule="evenodd" d="M31.9662 3.65283C47.6035 3.65283 60.28 16.3292 60.28 31.9662C60.28 47.6032 47.6035 60.2796 31.9662 60.2796C16.3289 60.2795 3.65234 47.6032 3.65234 31.9662C3.65235 16.3292 16.3289 3.65284 31.9662 3.65283ZM31.9662 5.22574C17.1976 5.22575 5.22528 17.1979 5.22527 31.9662C5.22527 36.968 6.59904 41.6488 8.98918 45.6526L9.89727 47.0708C14.7158 54.0973 22.8026 58.7066 31.9662 58.7066C36.4415 58.7066 40.6599 57.6069 44.3664 55.6635L45.9393 54.7695C53.5985 50.0663 58.707 41.613 58.707 31.9662C58.707 22.3194 53.5985 13.8659 45.9393 9.16277L44.3664 8.26879C42.95 7.52612 41.4589 6.90645 39.9072 6.42456L38.283 5.97631C36.2577 5.4858 34.1423 5.22574 31.9662 5.22574Z" fill="url(#paint0_linear_5913_83987)"/>
<path fill-rule="evenodd" clip-rule="evenodd" d="M31.9981 3.7207C47.6164 3.7207 60.2775 16.3817 60.2775 31.9998C60.2775 47.6179 47.6164 60.2788 31.9981 60.2788C16.3799 60.2788 3.71875 47.6179 3.71875 31.9998C3.71875 16.3817 16.3799 3.72071 31.9981 3.7207ZM31.9981 5.29171C17.2475 5.29172 5.28977 17.2493 5.28976 31.9998C5.28976 36.9955 6.66186 41.6706 9.0491 45.6696L11.1672 42.801H13.12L9.95609 47.0861C14.7687 54.104 22.8457 58.7078 31.9981 58.7078C36.4681 58.7078 40.6813 57.6094 44.3833 55.6683V42.7939H45.9543V54.7754C53.6042 50.0779 58.7065 41.6349 58.7065 31.9998C58.7065 22.3647 53.6042 13.9214 45.9543 9.22396V20.4024H44.3833V8.33107C42.9686 7.5893 41.4793 6.97038 39.9295 6.48907L29.5938 20.4883H27.641L38.3073 6.04137C36.2844 5.55145 34.1716 5.29171 31.9981 5.29171Z" fill="white"/>
<defs>
<linearGradient id="paint0_linear_5913_83987" x1="46.8933" y1="5.6729" x2="17.0345" y2="34.3316" gradientUnits="userSpaceOnUse">
<stop stop-color="#B38EFF"/>
<stop offset="0.385597" stop-color="#5A9CFF"/>
<stop offset="1" stop-color="#14CE75"/>
</linearGradient>
</defs>
</svg>
