<?xml version="1.0" encoding="UTF-8"?> <svg xmlns="http://www.w3.org/2000/svg" width="7033" height="1279" viewBox="0 0 7033 1279" fill="none"><path d="M6645.33 210.154H6631.39L6612.42 237.58H6606.25V210.154H6594.83V275.289H6606.25V247.407H6613.79L6633.68 275.289H6647.39L6622.94 241.236L6645.33 210.154Z" fill="#12AE83"></path><path d="M6672.3 210.154L6647.85 275.061H6659.5L6664.76 259.977H6689.9L6695.16 275.061H6707.04L6682.36 210.154H6672.3ZM6667.96 250.835L6677.33 223.867L6686.7 250.835H6667.96Z" fill="#12AE83"></path><path d="M6766.46 210.154H6725.55L6723.95 238.951C6723.5 244.893 6722.58 250.378 6720.98 255.178C6719.38 259.977 6717.32 263.634 6714.81 266.148H6709.55L6710.01 291.059H6720.98V275.061H6763.72V291.059H6774.46L6775.15 266.148H6766.92V210.154H6766.46ZM6755.26 266.148H6727.38C6731.72 259.291 6734.47 249.921 6735.15 237.58L6736.29 219.296H6755.26V266.148Z" fill="#12AE83"></path><path d="M6808.06 210.154H6783.14V275.061H6794.34V251.064H6807.83C6815.37 251.064 6821.31 249.235 6825.42 245.807C6829.54 242.15 6831.6 237.351 6831.6 230.952C6831.6 224.553 6829.54 219.753 6825.2 215.868C6820.85 211.983 6815.14 210.154 6807.83 210.154H6808.06ZM6817.2 239.179C6815.14 241.008 6811.94 241.922 6808.06 241.922H6794.57V219.296H6808.51C6812.17 219.296 6815.14 220.439 6817.43 222.496C6819.48 224.553 6820.63 227.295 6820.63 230.952C6820.63 234.609 6819.48 237.351 6817.43 239.179H6817.2Z" fill="#12AE83"></path><path d="M6878.9 237.58C6875.25 235.98 6871.13 235.066 6866.33 235.066H6853.08V210.154H6841.88V275.061H6866.79C6873.88 275.061 6879.59 273.233 6883.7 269.347C6887.82 265.691 6889.87 260.891 6889.87 254.72C6889.87 248.55 6888.96 247.179 6887.13 244.207C6885.3 241.236 6882.56 238.951 6879.13 237.351L6878.9 237.58ZM6875.48 263.177C6873.42 265.234 6870.45 266.376 6866.56 266.376H6853.31V244.436H6866.79C6870.45 244.436 6873.42 245.579 6875.48 247.407C6877.53 249.235 6878.68 251.978 6878.68 255.178C6878.68 258.377 6877.53 261.348 6875.48 263.405V263.177Z" fill="#12AE83"></path><path d="M6907.47 210.154H6896.27V275.061H6907.47V210.154Z" fill="#12AE83"></path><path d="M6830.23 595.717H6837.77C6840.28 595.717 6842.34 595.032 6843.71 593.66C6845.08 592.289 6845.77 589.775 6845.77 586.347V571.263C6845.77 567.835 6845.08 565.321 6843.71 563.949C6842.34 562.578 6840.51 561.893 6837.77 561.893H6830.23V596.174V595.717Z" fill="#12AE83"></path><path d="M6560.32 644.396H6552.77V678.678H6560.32C6562.83 678.678 6564.89 677.992 6566.26 676.621C6567.63 675.25 6568.32 672.736 6568.32 669.308V654.224C6568.32 650.796 6567.63 648.282 6566.26 646.91C6564.89 645.539 6563.06 644.854 6560.32 644.854V644.396Z" fill="#12AE83"></path><path d="M6201.96 457.44H6217.27L6209.73 406.475L6201.96 457.44Z" fill="#12AE83"></path><path d="M6649.22 475.048H6656.76C6659.28 475.048 6661.33 474.363 6662.7 472.991C6664.07 471.62 6664.76 469.106 6664.76 465.678V450.594C6664.76 447.166 6664.07 444.652 6662.7 443.281C6661.33 441.909 6659.5 441.224 6656.76 441.224H6649.22V475.505V475.048Z" fill="#12AE83"></path><path d="M6772.63 475.048H6780.17C6782.69 475.048 6784.75 474.363 6786.12 472.991C6787.49 471.62 6788.17 469.106 6788.17 465.678V450.594C6788.17 447.166 6787.49 444.652 6786.12 443.281C6784.75 441.909 6782.92 441.224 6780.17 441.224H6772.63V475.505V475.048Z" fill="#12AE83"></path><path d="M6616.76 643.253C6611.28 643.253 6608.54 646.681 6608.54 653.309V707.931C6608.54 714.559 6611.28 717.987 6616.76 717.987C6622.25 717.987 6624.99 714.559 6624.99 707.931V653.309C6624.99 646.681 6622.25 643.253 6616.76 643.253Z" fill="#12AE83"></path><path d="M6519.64 457.44H6534.95L6527.41 406.475L6519.64 457.44Z" fill="#12AE83"></path><path d="M6403.53 401.676C6398.05 401.676 6395.31 405.104 6395.31 411.732V466.354C6395.31 472.982 6398.05 476.41 6403.53 476.41C6409.02 476.41 6411.76 472.982 6411.76 466.354V411.732C6411.76 405.104 6409.02 401.676 6403.53 401.676Z" fill="#12AE83"></path><path d="M7022.43 100.229H6131.56C6127.45 100.229 6123.79 102.743 6122.19 106.628L5738.01 1157.25C5734.12 1165.47 5742.12 1174.16 5750.58 1170.96L6900.84 752.266C6904.96 750.895 6907.47 747.01 6907.47 742.667V513.437L7027 445.559C7030.43 443.96 7032.49 440.303 7032.49 436.418V110.056C7032.49 104.571 7027.92 100 7022.43 100V100.229ZM6172.7 489.44H6156.47V446.245H6138.42V489.44H6122.65V388.423H6138.42V431.618H6156.47V388.423H6172.7V489.44ZM6222.3 489.44L6219.55 471.156H6200.13L6197.38 489.44H6182.76L6198.98 388.423H6222.3L6238.52 489.44H6222.52H6222.3ZM6305.26 503.153H6289.72V489.668H6248.12V388.652H6263.89V475.27H6281.95V388.652H6298.17V475.499H6305.03V503.153H6305.26ZM6366.74 489.44H6352.57V418.363L6346.17 443.274L6332.91 489.668H6316.68V388.652H6330.85V452.644L6336.57 430.475L6349.59 388.88H6366.96V489.897L6366.74 489.44ZM6427.53 465.214C6427.53 473.213 6425.47 479.613 6421.36 483.955C6417.24 488.297 6411.3 490.583 6403.53 490.583C6395.76 490.583 6389.82 488.297 6385.71 483.955C6381.59 479.613 6379.53 473.213 6379.53 465.214V412.649C6379.53 404.65 6381.59 398.251 6385.71 393.908C6389.82 389.566 6395.76 387.281 6403.53 387.281C6411.3 387.281 6417.24 389.566 6421.36 393.908C6425.47 398.251 6427.53 404.65 6427.53 412.649V465.214ZM6456.33 489.44H6440.56V388.423H6456.33V431.618H6474.38V388.423H6490.61V489.44H6474.38V446.245H6456.33V489.44ZM6506.61 610.34H6490.38V523.722H6472.32V610.34H6456.55V509.323H6506.61V610.34ZM6515.06 489.44H6500.43L6516.66 388.423H6539.97L6556.2 489.44H6540.2L6537.46 471.156H6518.03L6515.29 489.44H6515.06ZM6533.8 610.34H6518.03V509.323H6541.34C6549.11 509.323 6555.06 511.38 6559.17 515.723C6563.06 520.065 6565.11 526.236 6565.11 534.235V547.262C6565.11 555.489 6563.06 561.66 6559.17 565.774C6555.29 570.116 6549.34 572.173 6541.34 572.173H6533.8V610.112V610.34ZM6621.56 489.44H6605.34V402.822H6591.4L6589.57 463.843C6589.34 472.985 6587.28 479.613 6583.85 483.498C6580.2 487.383 6574.48 489.44 6566.48 489.44H6563.97V475.042C6566.48 475.042 6568.54 475.042 6569.91 474.356C6571.28 473.899 6572.2 472.985 6572.88 471.385C6573.57 469.785 6573.8 467.5 6574.03 464.529L6576.54 388.195H6621.33V489.211L6621.56 489.44ZM6624.31 533.549V586.114C6624.31 594.113 6622.25 600.513 6618.13 604.855C6614.02 609.197 6608.08 611.483 6600.31 611.483C6592.54 611.483 6586.6 609.197 6582.48 604.855C6578.37 600.513 6576.31 594.113 6576.31 586.114V533.549C6576.31 525.55 6578.37 519.151 6582.48 514.808C6586.6 510.466 6592.54 508.181 6600.31 508.181C6608.08 508.181 6614.02 510.466 6618.13 514.808C6622.25 519.151 6624.31 525.55 6624.31 533.549ZM6583.85 668.162C6583.85 676.389 6581.8 682.56 6577.91 686.674C6574.03 691.016 6568.08 693.073 6560.08 693.073H6552.54V731.011H6536.77V629.995H6560.08C6568.08 629.995 6573.8 632.052 6577.91 636.394C6581.8 640.736 6583.85 646.907 6583.85 654.906V667.933V668.162ZM6640.76 706.786C6640.76 714.785 6638.7 721.184 6634.59 725.526C6630.48 729.869 6624.53 732.154 6616.76 732.154C6608.99 732.154 6603.05 729.869 6598.94 725.526C6594.82 721.184 6592.77 714.785 6592.77 706.786V654.221C6592.77 646.222 6594.82 639.822 6598.94 635.48C6603.05 631.138 6608.99 628.852 6616.76 628.852C6624.53 628.852 6630.48 631.138 6634.59 635.48C6638.7 639.822 6640.76 646.222 6640.76 654.221V706.786ZM6656.76 426.362C6664.76 426.362 6670.47 428.419 6674.59 432.761C6678.47 437.103 6680.53 443.274 6680.53 451.273V464.3C6680.53 472.528 6678.47 478.698 6674.59 482.812C6670.7 487.155 6664.76 489.211 6656.76 489.211H6633.45V388.195H6649.22V426.133H6656.76V426.362ZM6673.21 551.833V566.231H6651.5V595.713H6678.93V610.112H6635.73V509.095H6678.93V523.493H6651.5V551.604H6673.21V551.833ZM6699.73 664.048H6684.64V653.306C6684.64 646.679 6681.9 643.25 6676.41 643.25C6670.93 643.25 6668.19 646.679 6668.19 653.306V707.929C6668.19 714.556 6670.93 717.756 6676.41 717.756C6681.9 717.756 6684.64 714.556 6684.64 707.929V693.53H6699.73V707.014C6699.73 715.242 6697.67 721.413 6693.55 725.755C6689.44 730.097 6683.73 732.383 6675.96 732.383C6668.19 732.383 6662.47 730.097 6658.36 725.755C6654.24 721.413 6652.19 715.013 6652.19 707.014V654.449C6652.19 646.221 6654.24 640.051 6658.36 635.708C6662.47 631.366 6668.19 629.081 6675.96 629.081C6683.73 629.081 6689.44 631.366 6693.55 635.708C6697.67 640.051 6699.73 646.45 6699.73 654.449V664.277V664.048ZM6706.12 610.34H6690.35V509.323H6706.12V553.432L6726.92 509.323H6742.69L6720.52 554.347L6742.69 610.34H6726.46L6710.92 570.116L6706.12 579.258V610.34ZM6726.46 431.847V388.652H6742.69V489.668H6726.46V446.474H6708.41V489.668H6692.64V388.652H6708.41V431.847H6726.46ZM6758 664.048H6742.92V653.306C6742.92 646.679 6740.18 643.25 6734.69 643.25C6729.21 643.25 6726.46 646.679 6726.46 653.306V707.929C6726.46 714.556 6729.21 717.756 6734.69 717.756C6740.18 717.756 6742.92 714.556 6742.92 707.929V693.53H6758V707.014C6758 715.242 6755.95 721.413 6751.83 725.755C6747.72 730.097 6742.01 732.383 6734.24 732.383C6726.47 732.383 6720.75 730.097 6716.64 725.755C6712.52 721.413 6710.47 715.013 6710.47 707.014V654.449C6710.47 646.221 6712.52 640.051 6716.64 635.708C6720.75 631.366 6726.47 629.081 6734.24 629.081C6742.01 629.081 6747.72 631.366 6751.83 635.708C6755.95 640.051 6758 646.45 6758 654.449V664.277V664.048ZM6780.17 426.362C6787.94 426.362 6793.89 428.419 6798 432.761C6801.88 437.103 6803.94 443.274 6803.94 451.273V464.3C6803.94 472.528 6801.88 478.698 6798 482.812C6794.11 487.155 6788.17 489.211 6780.17 489.211H6756.86V388.195H6772.63V426.133H6780.17V426.362ZM6803.03 509.323V523.722H6786.34V610.34H6770.57V523.722H6753.89V509.323H6803.03ZM6820.63 731.011H6806.46V659.934L6800.06 684.846L6786.8 731.24H6770.57V630.223H6784.74V694.216L6790.46 672.047L6803.48 630.452H6820.85V731.469L6820.63 731.011ZM6837.54 547.262C6845.54 547.262 6851.25 549.319 6855.36 553.661C6859.25 558.003 6861.31 564.174 6861.31 572.173V585.2C6861.31 593.428 6859.25 599.598 6855.36 603.712C6851.48 608.055 6845.54 610.112 6837.54 610.112H6814.23V509.095H6830V547.033H6837.54V547.262ZM6828.85 489.44H6813.08V388.423H6828.85V489.44ZM6886.22 731.011H6871.82V659.934L6865.42 684.846L6852.16 731.24H6835.94V630.223H6850.11V694.216L6855.82 672.047L6868.85 630.452H6886.22V731.469V731.011ZM6886.22 610.34H6870.45V509.323H6886.22V610.34ZM6886.22 402.822H6858.79V430.932H6880.5V445.331H6858.79V474.813H6886.22V489.211H6843.02V388.195H6886.22V402.593V402.822ZM7025.17 436.646C7025.17 437.789 7024.49 438.703 7023.57 439.16L6907.7 504.981V374.939C6907.7 369.454 6903.13 364.883 6897.64 364.883H6113.97C6110.08 364.883 6106.42 367.169 6104.82 370.825L5790.8 1044.12L6129.28 109.37C6129.74 108.228 6130.65 107.771 6131.79 107.771H7022.66C7024.26 107.771 7025.4 108.913 7025.4 110.513V436.875L7025.17 436.646Z" fill="#12AE83"></path><path d="M6600.31 522.581C6594.82 522.581 6592.08 526.009 6592.08 532.637V587.259C6592.08 593.887 6594.82 597.315 6600.31 597.315C6605.79 597.315 6608.54 593.887 6608.54 587.259V532.637C6608.54 526.009 6605.79 522.581 6600.31 522.581Z" fill="#12AE83"></path><path d="M6547.06 555.715C6548.43 554.344 6549.11 551.83 6549.11 548.402V533.318C6549.11 529.889 6548.43 527.375 6547.06 526.004C6545.69 524.633 6543.86 523.947 6541.12 523.947H6533.57V558.229H6541.12C6543.63 558.229 6545.69 557.543 6547.06 556.172V555.715Z" fill="#12AE83"></path><path fill-rule="evenodd" clip-rule="evenodd" d="M563.024 286.712C356.156 286.712 188.463 453.696 188.463 659.68C188.463 865.669 356.156 1032.65 563.024 1032.65C769.892 1032.65 937.585 865.669 937.585 659.68C937.585 453.696 769.892 286.712 563.024 286.712ZM563.024 364.06C399.056 364.06 266.141 496.414 266.141 659.68C266.141 822.947 399.056 955.3 563.024 955.3C726.987 955.3 859.906 822.947 859.906 659.68C859.906 496.414 726.987 364.06 563.024 364.06ZM293.189 483.891L297.181 478.291L287.9 455.506L304.872 467.528L309.046 461.675L283.626 443.678L279.724 449.134L289.024 472.136L271.938 460.042L267.764 465.89L293.189 483.891ZM890.415 553.103C890.415 548.265 886.395 544.348 881.452 544.348C876.489 544.348 872.464 548.265 872.464 553.103C872.464 557.936 876.489 561.858 881.452 561.858C886.395 561.858 890.415 557.936 890.415 553.103ZM253.792 553.103C253.792 548.265 249.776 544.348 244.823 544.348C239.861 544.348 235.841 548.265 235.841 553.103C235.841 557.936 239.861 561.858 244.823 561.858C249.776 561.858 253.792 557.936 253.792 553.103ZM315.133 408.637L310.166 413.831L318.907 422.13L310.329 431.092L301.586 422.788L296.606 427.983L319.184 449.419L324.165 444.225L314.906 435.438L323.485 426.476L332.744 435.262L337.711 430.072L315.133 408.637ZM335.105 402.747C336.288 406.575 338.776 409.647 342.234 411.688C345.823 413.79 349.961 414.562 354.044 413.687C357.964 412.847 361.177 410.311 363.39 407.048C365.288 404.237 366.548 400.604 365.564 397.242L358.794 398.145C359.388 400.134 358.952 402.12 357.797 403.822C356.627 405.555 354.901 406.872 352.83 407.292C350.514 407.766 348.261 407.188 346.313 405.911C344.337 404.607 342.864 402.747 341.984 400.564C341.114 398.429 340.997 396.127 341.939 393.997C342.823 392.039 344.649 390.627 346.594 389.805C348.588 388.957 350.572 389.083 352.471 390.13L354.434 383.7C349.653 381.547 344.445 382.892 340.448 386.019C338.513 387.531 337.067 389.232 336.093 391.123C334.231 394.756 333.895 398.849 335.105 402.747ZM387.286 361.316L383.869 356.014L361.789 370.111L365.202 375.414L373.229 370.292L386.652 391.136L392.716 387.265L379.297 366.42L387.286 361.316ZM412.312 375.364L418.589 372.535L422.101 348.193L430.685 367.092L437.252 364.137L424.399 335.829L418.276 338.59L414.66 363.117L406.027 344.105L399.46 347.061L412.312 375.364ZM466.601 327.255L464.575 321.288L439.722 329.659L441.752 335.626L450.785 332.583L458.747 356.041L465.577 353.744L457.614 330.287L466.601 327.255ZM490.144 346.704L493.734 346.063C497.332 345.422 499.059 343.916 500.128 340.431L507.412 312.078L499.93 313.41L496.267 329.353L486.478 315.801L478.642 317.19L494.382 336.997C494.21 337.882 494.115 338.992 493.476 339.655C493.123 340.021 492.574 340.269 491.821 340.4L489.103 340.887L490.144 346.704ZM546.854 314.325L546.369 308.044L520.219 310.024L520.699 316.306L530.198 315.585L532.084 340.278L539.271 339.732L537.391 315.043L546.854 314.325ZM583.006 339.443L590.189 339.989L590.955 329.998L597.259 330.477C599.28 330.629 601.061 330.264 602.611 329.371C605.729 327.579 607.732 324.321 608.004 320.76C608.212 318.098 607.342 315.431 605.711 313.323C603.966 311.071 601.505 309.695 598.65 309.478L585.371 308.472L583.006 339.443ZM591.431 323.761L592.079 315.295L597.689 315.725C600.028 315.896 600.898 318.115 600.739 320.169C600.63 321.536 600.136 323.112 598.872 323.843C598.383 324.127 597.857 324.248 597.299 324.204L591.431 323.761ZM632.35 314.42L614.852 342.277L622.039 343.929L625.678 337.624L635.681 339.921L636.171 347.173L643.363 348.825L639.932 316.162L632.35 314.42ZM635.332 334.768L628.253 333.143L634.489 322.317L635.332 334.768ZM665.937 355.815C668.13 356.556 670.192 356.885 672.136 356.817C675.975 356.695 678.993 354.917 680.257 351.194C681.4 347.85 680.42 344.601 677.484 342.571C680.525 342.25 682.718 340.396 683.698 337.525C684.858 334.104 684.051 331.067 681.259 328.739C678.159 326.135 672.394 324.37 668.411 325.129C666.213 325.539 664.191 326.392 662.361 327.687L666.136 332.836C667.006 332.114 668.075 331.641 669.35 331.424C671.271 331.104 674.357 331.745 675.839 333.076C676.836 333.956 677.153 335.075 676.728 336.334C676.524 336.934 676.215 337.421 675.793 337.783C675.377 338.152 674.847 338.373 674.203 338.442C673.559 338.513 672.802 338.405 671.946 338.116L668.117 336.825L666.385 341.925L670.169 343.202C671.23 343.559 672.05 343.997 672.63 344.515C673.759 345.508 674.058 346.789 673.573 348.203C672.657 350.91 670.002 350.901 667.681 350.12C665.039 349.231 663.058 347.363 662.356 344.632L656.165 346.059C657.421 350.914 661.282 354.249 665.937 355.815ZM717.474 368.307C719.097 364.724 718.512 361.281 715.48 358.672C718.593 358.649 721.264 356.772 722.537 353.979C723.08 352.778 723.339 351.506 723.33 350.157C723.302 347.353 721.943 344.971 719.341 343.798L703.525 336.677L690.677 364.985L704.536 371.222C707.523 372.566 711.279 373.316 714.338 371.768C715.689 371.082 716.736 369.926 717.474 368.307ZM711.388 363.983C710.622 365.657 708.755 366.447 707.051 365.676L699.764 362.399L702.564 356.217L710.133 359.624C711.837 360.391 712.095 362.427 711.388 363.983ZM707.558 345.215L714.247 348.225C715.934 348.988 716.156 350.716 715.444 352.273C714.691 353.947 713.083 354.759 711.352 353.979L704.898 351.076L707.558 345.215ZM726.376 382.828L732.185 386.534L754.592 376.208L743.347 393.664L749.421 397.535L766.257 371.389L760.592 367.774L737.968 378.117L749.276 360.553L743.207 356.677L726.376 382.828ZM796.458 403.812L800.601 399.052L780.773 381.953L776.626 386.709L783.832 392.928L767.553 411.642L773.001 416.345L789.279 397.626L796.458 403.812ZM789.91 431.719L794.677 436.692L818.9 431.94L803.832 446.255L808.798 451.449L831.377 430.009L826.736 425.167L802.296 429.879L817.459 415.478L812.492 410.284L789.91 431.719ZM818.144 463.286L822.853 469.884L835.927 468.629C836.557 469.518 837.197 470.412 837.835 471.305L828.554 477.867L832.733 483.715L858.157 465.719L850.516 455.019C848.363 452 845.145 450.091 841.352 450.371C839.63 450.497 837.985 451.124 836.403 452.239C833.099 454.581 831.327 458.21 832.374 462.23L818.144 463.286ZM839.879 463.678C838.461 461.689 838.592 459.653 840.659 458.191C842.689 456.756 844.719 457.388 846.129 459.364L849.007 463.394L842.807 467.776L839.879 463.678ZM209.677 643.466L209.714 650.641L234.576 650.524L234.631 662.031L209.768 662.149L209.795 669.324L240.989 669.175L240.871 643.321L209.677 643.466ZM210.207 685.065L210.751 692.221L220.786 691.468L221.261 697.75C221.696 703.503 226.931 707.285 232.524 706.861C238.08 706.441 242.743 701.626 242.321 695.944L241.316 682.726L210.207 685.065ZM227.053 690.994L235.55 690.353L235.972 695.936C236.144 698.259 234.105 699.46 232.025 699.614C230.108 699.758 227.66 699.099 227.497 696.843L227.053 690.994ZM217.173 735.106C219.131 743.517 227.665 748.59 236.045 746.668C244.334 744.763 249.998 736.618 248.032 728.148C246.078 719.722 237.608 714.609 229.197 716.541C220.79 718.468 215.202 726.59 217.173 735.106ZM230.76 723.68C235.56 722.574 240.568 724.338 241.76 729.501C242.933 734.551 239.353 738.41 234.521 739.52C229.668 740.634 224.629 738.847 223.441 733.716C222.245 728.576 226.051 724.758 230.76 723.68ZM228.834 774.611L230.933 781.059L233.616 780.193C236.289 787.21 243.572 791.317 250.933 788.939C258.356 786.529 261.795 779.024 259.81 771.704L262.149 770.951L260.041 764.497L257.703 765.26C254.993 758.171 247.778 754.118 240.346 756.528C232.931 758.924 229.505 766.443 231.503 773.739L228.834 774.611ZM237.033 772.138C236.004 768.022 238.787 764.579 242.575 763.351C246.463 762.087 250.651 763.211 252.282 767.196L237.033 772.138ZM239.031 778.253L254.281 773.315C255.346 777.462 252.555 780.866 248.698 782.115C244.796 783.374 240.744 782.134 239.031 778.253ZM257.268 822.541L249.922 809.842L255.668 806.543L261.813 817.156L266.876 814.251L260.726 803.636L265.983 800.622L273.134 812.977L278.618 809.832L267.869 791.258L240.839 806.773L251.789 825.686L257.268 822.541ZM270.193 827.526C265.059 830.92 262.172 837.161 262.973 843.245C263.499 847.202 265.788 850.596 268.879 853.051C271.539 855.163 275.065 856.707 278.514 855.997L278.152 849.202C276.112 849.626 274.167 849.039 272.55 847.762C267.51 843.755 268.924 837.135 274.032 833.759C276.855 831.896 280.558 831.133 283.653 832.807C287.288 834.779 289.11 839.941 286.681 843.565L292.962 846.029C295.5 841.454 294.571 836.177 291.765 831.963C290.402 829.923 288.815 828.344 287.003 827.234C281.84 824.07 275.247 824.187 270.193 827.526ZM291.394 859.324C286.54 863.078 284.124 869.531 285.384 875.533C285.815 877.582 286.722 879.495 288.099 881.264C291.09 885.101 296.841 888.507 301.831 887.099L300.961 880.349C298.051 881.179 295.07 879.789 293.279 877.483C292.523 876.517 292.028 875.474 291.802 874.356C291.099 870.808 292.921 867.401 295.69 865.253C296.569 864.571 297.553 864.017 298.627 863.593C302.14 862.203 305.697 862.889 308.076 865.926C309.98 868.376 310.628 871.287 309.041 874.094L315.5 876.084C316.442 874.017 316.759 871.756 316.433 869.292C316.107 866.833 315.042 864.445 313.243 862.144C311.733 860.208 310.029 858.755 308.14 857.78C302.756 855.009 296.184 855.614 291.394 859.324ZM305.516 901.265L310.569 905.945L334.471 899.758L320.281 914.943L325.565 919.831L346.807 897.086L341.884 892.528L317.766 898.692L332.041 883.408L326.766 878.525L305.516 901.265ZM348.003 939.032C351.298 941.789 355.363 942.99 359.637 942.507C363.747 942.042 367.396 940.106 370.051 936.956C372.634 933.897 373.94 929.916 373.808 925.932C373.673 921.586 371.778 917.777 368.438 914.988C365.152 912.245 361.078 910.963 356.809 911.468C352.726 911.947 349.027 913.86 346.372 917.001C343.766 920.101 342.428 924.041 342.583 928.08C342.732 932.443 344.645 936.234 348.003 939.032ZM351.937 921.766C353.414 920.015 355.413 918.626 357.67 918.129C360.126 917.592 362.338 918.228 364.246 919.821C366.095 921.369 367.147 923.445 367.065 925.869C366.988 928.202 366.018 930.385 364.513 932.159C363.04 933.915 361.037 935.287 358.785 935.828C356.342 936.41 354.067 935.76 352.155 934.167C350.292 932.611 349.276 930.499 349.358 928.062C349.439 925.751 350.455 923.522 351.937 921.766ZM410.911 941.763L404.631 938.247L398.712 948.739L387.867 942.674L393.786 932.181L387.508 928.671L372.222 955.747L378.508 959.267L384.767 948.166L395.612 954.231L389.344 965.328L395.63 968.843L410.911 941.763ZM429.892 951.65L406.783 975.111L413.454 978.261L418.367 972.882L427.635 977.268L426.547 984.457L433.222 987.611L436.916 954.971L429.892 951.65ZM428.405 972.16L421.852 969.06L430.272 959.818L428.405 972.16ZM464.041 997.188L470.906 999.367L480.383 969.773L459.785 963.234C457.89 968.518 456.064 974.389 453.617 979.39C452.647 981.389 450.848 984.832 448.428 985.319C447.576 985.491 446.656 985.423 445.677 985.112L443.782 991.032C445.936 991.714 447.879 992.002 449.615 991.899C453.921 991.632 456.603 988.437 458.575 984.94C460.986 980.671 462.568 975.86 464.227 971.257L471.595 973.595L464.041 997.188ZM486.229 1003.4L499.48 1005.33C505.784 1006.25 510.552 1003.13 511.495 996.737C512.469 990.116 508.404 986.068 502.05 985.148L496.318 984.308L497.872 973.703L490.743 972.665L486.229 1003.4ZM494.205 998.636L495.46 990.111L500.546 990.852C503.17 991.235 504.62 993.049 504.235 995.676C503.832 998.393 502.041 999.774 499.295 999.381L494.205 998.636ZM552.7 980.238L545.516 979.701L544.611 991.695L532.202 990.762L533.117 978.767L525.929 978.225L523.582 1009.2L530.77 1009.74L531.73 997.043L544.126 997.977L543.165 1010.67L550.348 1011.21L552.7 980.238ZM579.729 1010.94C584.043 1010.96 587.937 1009.29 590.909 1006.2C593.769 1003.23 595.337 999.408 595.351 995.297C595.368 991.294 593.809 987.417 591.158 984.43C588.263 981.172 584.356 979.457 579.996 979.439C575.714 979.421 571.753 981.036 568.793 984.136C565.96 987.115 564.347 990.928 564.338 995.039C564.316 999.083 565.824 1002.96 568.53 1005.97C571.449 1009.22 575.36 1010.92 579.729 1010.94ZM571.667 995.157C571.684 992.874 572.319 990.527 573.746 988.708C575.283 986.731 577.39 985.816 579.883 985.829C582.293 985.838 584.433 986.763 585.938 988.672C587.374 990.518 588.022 992.819 588.018 995.134C588.004 997.423 587.356 999.756 585.969 1001.6C584.461 1003.61 582.294 1004.56 579.801 1004.55C577.372 1004.54 575.224 1003.56 573.729 1001.64C572.301 999.809 571.662 997.449 571.667 995.157ZM609.133 1007.75L616.261 1006.71L612.663 982.21L625.008 980.409L624.093 974.177L604.614 977.016L609.133 1007.75ZM655.45 999.123C659.587 997.932 662.855 995.238 664.831 991.434C666.734 987.783 667.151 983.681 666 979.728C664.885 975.883 662.298 972.602 658.903 970.481C655.2 968.171 650.963 967.62 646.784 968.83C642.665 970.017 639.325 972.675 637.363 976.483C635.495 980.134 635.028 984.249 636.175 988.194C637.304 992.079 639.851 995.378 643.295 997.508C647.025 999.805 651.253 1000.33 655.45 999.123ZM643.245 986.244C642.61 984.055 642.561 981.624 643.408 979.48C644.323 977.151 646.082 975.68 648.484 974.99C650.795 974.322 653.115 974.606 655.092 976.018C656.99 977.381 658.273 979.407 658.921 981.636C659.56 983.834 659.592 986.254 658.79 988.415C657.91 990.762 656.106 992.286 653.714 992.977C651.371 993.645 649.036 993.311 647.061 991.886C645.171 990.535 643.879 988.441 643.245 986.244ZM716.713 976.506C720.447 974.367 722.976 970.969 723.978 966.808C724.952 962.814 724.377 958.726 722.315 955.165C720.311 951.699 717.003 949.127 713.196 947.872C709.049 946.514 704.807 946.983 701.032 949.15C697.321 951.28 694.715 954.66 693.727 958.825C692.78 962.81 693.319 966.916 695.377 970.477C697.407 973.983 700.661 976.578 704.518 977.824C708.696 979.173 712.92 978.681 716.713 976.506ZM701.771 966.903C700.634 964.931 700.003 962.575 700.312 960.296C700.642 957.819 702.002 955.969 704.155 954.732C706.253 953.527 708.564 953.261 710.83 954.159C713.006 955.03 714.728 956.69 715.889 958.698C717.035 960.684 717.656 963.022 717.389 965.314C717.094 967.81 715.716 969.709 713.55 970.95C711.443 972.16 709.094 972.39 706.829 971.474C704.671 970.608 702.922 968.893 701.771 966.903ZM742.577 962.2L755.317 953.784C757.22 952.52 758.584 951.149 759.423 949.651C761.208 946.446 760.592 943.107 758.62 940.152C755.004 934.723 749.62 935.128 744.612 938.436L738.208 942.67L734.759 937.493L748.002 928.734L744.576 923.599L725.329 936.324L742.577 962.2ZM745.156 953.094L741.29 947.3L747.11 943.455C748.261 942.692 749.824 941.992 751.12 942.854C752.085 943.5 752.774 944.551 752.964 945.701C753.205 947.231 752.262 948.396 751.047 949.199L745.156 953.094ZM775.117 940.422L780.809 936.017L774.627 928.111L779.626 924.244C782.685 921.874 783.863 918.386 783.166 914.627C782.84 912.854 782.128 911.261 781.031 909.857C779.382 907.741 776.948 906.36 774.315 905.886C771.496 905.385 768.749 906.008 766.483 907.763L755.974 915.895L775.117 940.422ZM770.78 923.17L765.545 916.469L769.987 913.03C770.998 912.249 772.23 912.195 773.381 912.709C774.034 912.994 774.65 913.521 775.248 914.28C775.819 915.015 776.196 915.728 776.35 916.414C776.64 917.597 776.432 918.792 775.43 919.573L770.78 923.17ZM786.22 889.897L799.513 919.975L804.929 914.979L801.742 908.445L809.27 901.5L815.565 905.177L820.99 900.186L791.935 884.636L786.22 889.897ZM804.797 898.891L799.472 903.801L793.988 892.578L804.797 898.891ZM830.117 886.422C834.155 884.689 837.786 880.655 839.226 876.531C840.509 872.92 839.938 869.468 836.924 866.945C834.2 864.676 830.811 864.4 827.842 866.386C828.644 863.453 827.711 860.736 825.381 858.791C822.608 856.467 819.463 856.119 816.276 857.861C814.731 858.701 813.209 860 811.722 861.765C808.382 865.727 807.149 869.933 808.427 875.005L814.609 873.376C813.725 870.767 814.736 868.128 816.439 866.106C817.813 864.473 819.807 863.209 821.733 864.825C822.712 865.637 823.129 866.689 822.789 867.929C822.626 868.556 822.25 869.211 821.669 869.906L819.073 872.988L823.211 876.45L825.78 873.399C827.353 871.526 829.519 870.244 831.699 872.059C833.892 873.895 832.918 876.363 831.35 878.223C830.367 879.387 829.27 880.209 828.037 880.682C826.818 881.165 825.563 881.327 824.28 881.169L823.364 887.428C825.649 887.704 827.901 887.37 830.117 886.422ZM855.284 854.473C858.787 852.175 861.366 847.947 861.855 843.804C862.344 839.748 861.262 835.695 858.814 832.414C856.403 829.165 852.818 827.021 848.839 826.313C844.778 825.591 840.65 826.345 837.197 828.61C833.688 830.912 831.155 835.108 830.62 839.246C830.094 843.317 831.214 847.324 833.643 850.627C836.04 853.895 839.693 856.079 843.686 856.792C847.743 857.514 851.844 856.733 855.284 854.473ZM845.25 849.851C842.965 849.287 840.889 848.019 839.308 846.277C837.763 844.572 836.87 842.446 837.024 840.127C837.178 837.843 838.723 835.343 840.65 834.106C842.607 832.856 844.95 832.649 847.176 833.195C849.465 833.754 851.522 835.022 853.104 836.755C854.654 838.475 855.596 840.582 855.451 842.919C855.311 845.234 853.752 847.78 851.771 848.989C849.768 850.203 847.502 850.411 845.25 849.851ZM878.968 797.986C875.429 796.249 871.947 796.714 869.233 799.647C869.315 796.551 867.511 793.83 864.755 792.472C863.573 791.895 862.299 791.587 860.944 791.556C858.13 791.493 855.696 792.761 854.432 795.31L846.763 810.812L874.744 824.544L881.47 810.965C882.915 808.032 883.789 804.322 882.34 801.222C881.701 799.85 880.576 798.771 878.968 797.986ZM872.654 803.474C873.811 803.451 875.129 804.074 875.773 805.049C876.43 806.042 876.516 807.206 875.99 808.276L872.46 815.415L866.346 812.423L870.017 805.004C870.539 803.952 871.508 803.488 872.654 803.474ZM855.469 807.085L858.705 800.532C859.176 799.58 860.011 799.061 861.066 799.029C862.167 798.998 863.654 799.728 864.248 800.662C864.842 801.587 864.869 802.63 864.384 803.605L861.262 809.923L855.469 807.085ZM864.765 769.989L889.518 791.723L892.328 784.922L886.676 780.328L890.578 770.874L897.844 771.574L900.658 764.777L867.724 762.828L864.765 769.989ZM885.421 770.377L882.657 777.066L872.945 769.177L885.421 770.377ZM879.349 719.7L877.803 726.708L889.596 729.294L886.926 741.383L875.125 738.798L873.579 745.806L904.044 752.484L905.593 745.476L893.103 742.742L895.782 730.648L908.262 733.387L909.817 726.379L879.349 719.7ZM911.856 710.688L912.935 703.905L894.417 687.632L914.993 690.854L916.112 683.76L885.29 678.94L884.247 685.552L902.86 702.019L882.163 698.778L881.039 705.863L911.856 710.688ZM915.446 668.647L915.487 660.547L904.13 653.981C904.143 652.889 904.143 651.796 904.148 650.7L915.523 650.749L915.554 643.575L884.361 643.439L884.302 656.562C884.293 660.271 885.784 663.687 889.033 665.664C890.502 666.562 892.214 667.009 894.141 667.018C898.202 667.031 901.759 665.109 903.268 661.242L915.446 668.647ZM898.015 655.704C898.007 658.187 896.67 659.725 894.172 659.712C891.684 659.698 890.407 658.006 890.415 655.582L890.438 650.641L898.039 650.672L898.015 655.704ZM563.02 779.592C561.873 779.592 560.726 779.042 560.092 777.95C540.744 744.84 431.174 750.011 393.02 752.882C385.927 753.41 379.918 747.828 379.918 740.751V760.265C379.918 767.508 386.067 773.216 393.323 772.674C431.763 769.805 540.799 764.745 560.092 797.765C560.726 798.862 561.877 799.408 563.024 799.408V799.385C564.175 799.385 565.312 798.862 565.96 797.765C585.249 764.745 694.284 769.805 732.72 772.674C739.971 773.216 746.13 767.508 746.13 760.265V740.751C746.13 747.828 740.117 753.41 733.029 752.882C694.869 750.011 585.303 744.84 565.96 777.95C565.312 779.046 564.175 779.566 563.024 779.566L563.02 779.592ZM563.024 724.565C574.404 724.884 584.836 733.612 588.72 743.022C611.733 735.048 644.401 732.746 674.489 732.746C696.872 732.746 717.833 734.023 732.317 735.192C733.282 735.273 734.239 734.948 734.959 734.28C735.693 733.612 736.092 732.687 736.092 731.694V574.358C736.092 572.517 734.718 571.019 732.897 570.869C727.672 570.432 722.342 570.057 716.953 569.728V650.533C716.953 650.533 596.166 667.311 563.024 709.253C529.886 667.311 409.09 650.533 409.09 650.533V569.728C403.706 570.057 398.372 570.432 393.15 570.869C391.324 571.019 389.951 572.517 389.951 574.358V731.694C389.951 732.687 390.355 733.612 391.089 734.28C391.809 734.948 392.771 735.273 393.731 735.192C408.211 734.023 429.171 732.746 451.559 732.746C481.647 732.746 514.305 735.048 537.318 743.022C541.211 733.612 551.649 724.884 563.024 724.565ZM563.024 585.442L563.328 584.462C574.268 547.647 675.318 502.98 716.953 506.085V559.994C723.135 560.373 728.8 560.793 733.703 561.199C740.624 561.767 745.84 567.426 745.84 574.358V731.694C745.84 735.377 744.276 738.919 741.562 741.415C738.852 743.902 735.203 745.17 731.529 744.862C662.841 739.321 584.361 742.105 570.089 766.537C568.639 769.01 565.934 770.545 563.024 770.549C560.114 770.545 557.409 769.01 555.958 766.537C541.683 742.105 463.206 739.321 394.519 744.862C390.849 745.17 387.196 743.902 384.486 741.415C381.771 738.919 380.212 735.377 380.212 731.694V574.358C380.212 567.426 385.424 561.767 392.339 561.199C397.243 560.793 402.913 560.373 409.09 559.994V506.085C450.734 502.98 551.78 547.647 562.72 584.462L563.024 585.442ZM563.024 759.543C567.225 753.708 574.051 749.046 582.588 745.386C576.457 746.758 569.826 748.666 563.024 750.946C556.212 748.666 549.582 746.758 543.459 745.386C551.993 749.046 558.814 753.708 563.024 759.543ZM312.395 1161.75C127.241 1069.93 0 879.59 0 659.635C0 352.421 248.177 102.962 555.787 99.095V247.208C538.615 247.352 521.365 247.997 503.382 249.148C501.18 249.288 498.135 247.144 496.648 245.262C480.138 224.427 472.633 216.66 457.269 196.033C454.328 192.084 451.722 190.694 447.004 191.502C398.78 203.312 353.414 222.333 312.083 247.324C308.652 249.951 307.908 252.731 308.597 257.352C312.381 282.754 312.595 293.531 315.708 319.898C315.998 322.272 315.364 325.928 313.709 327.376C282.833 354.412 256.506 380.626 229.355 411.376C227.896 413.019 224.23 413.646 221.846 413.366C195.37 410.262 184.543 410.049 159.032 406.277C154.273 405.577 151.464 406.371 148.767 410.009C123.841 450.939 104.853 495.85 93.0009 543.568C91.9816 548.604 93.3366 551.289 97.4511 554.321C118.168 569.619 125.966 577.093 146.895 593.537C148.781 595.017 150.929 598.05 150.789 600.234C148.156 641.096 148.156 678.165 150.789 719.027C150.929 721.211 148.781 724.244 146.895 725.724C125.966 742.168 118.168 749.642 97.4511 764.94C93.4138 767.918 92.0354 770.563 92.9515 775.414C104.798 823.289 123.846 868.34 148.867 909.379C151.527 912.908 154.328 913.679 159.032 912.984C184.543 909.212 195.37 908.999 221.846 905.895C224.23 905.615 227.896 906.242 229.355 907.885C256.506 938.635 282.833 964.849 313.709 991.886C315.364 993.333 315.998 996.993 315.708 999.367C312.595 1025.73 312.381 1036.51 308.597 1061.91C307.895 1066.57 308.661 1069.36 312.173 1072C323.648 1078.94 335.436 1085.42 347.518 1091.4L312.395 1161.75ZM570.266 99.5779C564.805 141.668 596.08 165.847 626.843 175.265C596.071 184.687 564.778 208.881 570.275 251.007C570.977 251.093 571.68 251.174 572.382 251.237C576.185 251.422 579.901 251.508 583.504 251.49C624.061 249.523 656.329 216.164 656.329 175.293C656.329 133.157 622.031 99 579.72 99H579.126L578.165 99.0138C575.5 99.0726 572.863 99.2574 570.266 99.5779ZM667.582 107.718C654.856 148.225 681.449 177.445 710.096 192.044C678.146 195.997 643.113 214.413 641.178 256.856C641.854 257.059 642.538 257.253 643.223 257.442C646.929 258.282 650.568 259.008 654.122 259.613C694.402 264.685 732.004 237.415 739.129 197.166C746.479 155.671 718.652 116.099 676.985 108.783L676.41 108.689L675.458 108.531C672.82 108.125 670.192 107.854 667.582 107.718ZM762.002 132.566C742.405 170.256 763.488 203.632 789.162 222.956C757.012 221.332 719.287 233.408 709.988 274.87C710.618 275.186 711.248 275.497 711.891 275.8C715.408 277.266 718.862 278.611 722.251 279.821C761.032 291.784 802.821 271.431 816.861 233.024C831.327 193.433 810.829 149.651 771.075 135.242L770.521 135.043L769.606 134.728C767.082 133.87 764.539 133.148 762.002 132.566ZM850.647 173.361C824.774 207.089 839.721 243.601 861.633 267.073C830.253 259.911 791.002 265.285 774.614 304.51C775.171 304.93 775.743 305.345 776.318 305.755C779.522 307.809 782.695 309.731 785.821 311.505C821.928 329.998 866.631 317.173 887.157 281.78C908.313 245.289 895.759 198.627 859.113 177.562L858.601 177.273L857.762 176.804C855.424 175.523 853.049 174.372 850.647 173.361ZM930.832 228.863C899.466 257.604 907.818 296.148 925.308 323.053C895.65 310.57 856.063 309.077 833.077 344.867C833.562 345.381 834.047 345.892 834.55 346.397C837.346 348.97 840.129 351.411 842.906 353.699C875.233 378.153 921.496 373.253 947.881 341.948C975.078 309.673 970.854 261.549 938.437 234.463L937.988 234.089L937.245 233.484C935.165 231.819 933.016 230.275 930.832 228.863ZM1000.12 297.384C964.224 320.268 965.728 359.674 978.255 389.192C951.226 371.772 912.5 363.456 883.622 394.729C884.007 395.32 884.402 395.902 884.8 396.484C887.102 399.507 889.427 402.386 891.757 405.121C919.334 434.797 965.742 437.97 997.189 411.701C1029.6 384.615 1033.84 336.496 1006.63 304.221L1006.26 303.77L1005.63 303.043C1003.87 301.044 1002.03 299.153 1000.12 297.384ZM1056.4 376.849C1017.07 393.181 1011.67 432.243 1018.87 463.48C995.282 441.652 958.595 426.765 924.7 452.568C924.977 453.213 925.267 453.859 925.552 454.5C927.302 457.875 929.083 461.115 930.895 464.211C952.885 498.205 998.041 509.352 1033.59 488.923C1070.23 467.853 1082.79 421.196 1061.63 384.706L1061.33 384.201L1060.84 383.375C1059.46 381.101 1057.98 378.92 1056.4 376.849ZM1097.86 464.518C1056.28 473.824 1044.17 511.369 1045.84 543.374C1026.4 517.814 992.848 496.825 954.988 516.406C955.151 517.087 955.318 517.773 955.491 518.455C956.624 522.078 957.811 525.575 959.067 528.938C974.811 566.204 1017.34 584.967 1055.9 570.969C1095.66 556.533 1116.14 512.741 1101.64 473.155L1101.43 472.605L1101.1 471.712C1100.13 469.233 1099.05 466.833 1097.86 464.518ZM1123.65 559.033C1081.06 560.95 1062.56 595.816 1058.56 627.608C1043.92 599.06 1014.57 572.557 973.85 585.239C973.895 585.937 973.935 586.641 973.99 587.345C974.471 591.109 975.023 594.765 975.677 598.289C984.636 637.721 1023.21 663.606 1063.63 656.539C1105.31 649.247 1133.17 609.697 1125.85 568.198L1125.74 567.616L1125.57 566.677C1125.05 564.074 1124.41 561.519 1123.65 559.033ZM1132.42 655.515C1090.15 650.073 1065.86 681.219 1056.4 711.852C1046.95 681.206 1022.65 650.045 980.339 655.524C980.258 656.219 980.176 656.919 980.113 657.623C979.927 661.413 979.841 665.1 979.864 668.692C981.84 709.072 1015.34 741.212 1056.38 741.216C1098.69 741.212 1133 707.055 1133 664.924V664.333L1132.98 663.376C1132.93 660.723 1132.75 658.096 1132.42 655.515ZM1124.25 752.413C1083.56 739.745 1054.22 766.217 1039.56 794.751C1035.59 762.937 1017.09 728.048 974.475 726.126C974.271 726.793 974.067 727.471 973.877 728.152C973.039 731.848 972.309 735.472 971.706 739.014C966.608 779.123 993.99 816.56 1034.42 823.659C1076.08 830.975 1115.82 803.271 1123.17 761.776L1123.27 761.199L1123.43 760.255C1123.84 757.629 1124.11 755.012 1124.25 752.413ZM1099.29 846.426C1061.44 826.917 1027.92 847.916 1008.52 873.476C1010.15 841.458 998.019 803.902 956.384 794.642C956.057 795.265 955.749 795.902 955.445 796.533C953.968 800.031 952.622 803.47 951.402 806.854C939.393 845.469 959.837 887.077 998.4 901.062C1038.17 915.471 1082.13 895.055 1096.6 855.465L1096.8 854.91L1097.13 854.007C1097.98 851.494 1098.71 848.963 1099.29 846.426ZM1058.32 934.695C1024.45 908.936 987.776 923.824 964.206 945.638C971.402 914.392 966.005 875.308 926.617 858.985C926.191 859.549 925.77 860.113 925.357 860.686C923.3 863.877 921.369 867.032 919.584 870.15C901.02 906.107 913.896 950.617 949.432 971.054C986.086 992.12 1032.94 979.62 1054.1 943.13L1054.4 942.619L1054.86 941.789C1056.15 939.46 1057.3 937.091 1058.32 934.695ZM1002.59 1014.54C973.713 983.316 935.006 991.632 907.986 1009.04C920.526 979.516 922.021 940.088 886.083 917.208C885.566 917.687 885.05 918.174 884.551 918.671C881.963 921.45 879.507 924.226 877.205 926.987C852.655 959.185 857.577 1005.24 889.015 1031.52C921.424 1058.6 969.762 1054.4 996.953 1022.12L997.334 1021.66L997.942 1020.92C999.61 1018.86 1001.16 1016.72 1002.59 1014.54ZM933.773 1083.53C910.782 1047.79 871.218 1049.29 841.574 1061.76C859.063 1034.85 867.42 996.285 836.009 967.539C835.416 967.918 834.831 968.311 834.246 968.717C831.214 971.005 828.313 973.31 825.567 975.631C795.77 1003.1 792.588 1049.31 818.964 1080.62C846.17 1112.9 894.494 1117.11 926.903 1090.02L927.356 1089.64L928.081 1089.02C930.093 1087.27 931.992 1085.44 933.773 1083.53ZM392.883 1069.12L408.156 1074.37L393.228 1117.46L439.858 1085.26L454.283 1090.22L431.356 1156.37L416.178 1151.15L431.07 1108.16L384.476 1140.26L369.951 1135.27L392.883 1069.12ZM528.005 1135.88C530.788 1134.1 532.406 1131.29 532.873 1127.44C533.344 1123.54 532.433 1120.4 530.167 1118.01C527.887 1115.63 524.325 1114.14 519.476 1113.56L506.32 1112L503.414 1136.11L516.571 1137.68C521.42 1138.26 525.232 1137.66 528.005 1135.88ZM537.677 1105.57C541.977 1108.16 545.136 1111.5 547.148 1115.56C549.142 1119.63 549.836 1124.23 549.22 1129.4C548.603 1134.5 546.831 1138.79 543.926 1142.31C540.998 1145.82 537.146 1148.31 532.356 1149.79C527.561 1151.27 522.072 1151.63 515.886 1150.89L501.837 1149.21L499.526 1168.37L483.383 1166.44L491.74 1096.96L521.946 1100.57C528.127 1101.31 533.371 1102.97 537.677 1105.57ZM646.644 1094.64L654.113 1164.21L638.046 1165.93L631.982 1109.47L600.435 1112.83L606.495 1169.29L590.429 1171L582.955 1101.42L646.644 1094.64ZM742.822 1123.09C745.323 1120.18 746.91 1116.81 747.562 1112.97C748.206 1109.13 747.807 1105.17 746.338 1101.09C744.879 1097.01 742.668 1093.69 739.726 1091.12C736.79 1088.57 733.418 1086.95 729.63 1086.28C725.832 1085.61 721.988 1085.97 718.073 1087.36C714.161 1088.75 710.958 1090.89 708.452 1093.8C705.932 1096.71 704.35 1100.08 703.706 1103.92C703.053 1107.76 703.466 1111.73 704.921 1115.8C706.394 1119.88 708.591 1123.2 711.529 1125.76C714.479 1128.33 717.837 1129.95 721.635 1130.62C725.428 1131.28 729.28 1130.92 733.187 1129.53C737.094 1128.15 740.307 1126 742.822 1123.09ZM717.683 1144.7C711.107 1143.71 705.329 1141.18 700.361 1137.11C695.381 1133.04 691.733 1127.77 689.426 1121.32C687.101 1114.85 686.575 1108.47 687.84 1102.19C689.104 1095.89 691.959 1090.3 696.423 1085.39C700.887 1080.48 706.543 1076.81 713.423 1074.36C720.294 1071.92 727 1071.2 733.536 1072.2C740.085 1073.21 745.849 1075.74 750.857 1079.79C755.869 1083.85 759.536 1089.12 761.847 1095.58C764.164 1102.05 764.671 1108.43 763.374 1114.73C762.069 1121.03 759.215 1126.63 754.791 1131.52C750.358 1136.42 744.716 1140.09 737.841 1142.53C730.975 1144.97 724.249 1145.69 717.683 1144.7Z" fill="#12AE83"></path><path fill-rule="evenodd" clip-rule="evenodd" d="M2852.5 683.33C2854.99 681.339 2857.38 679.448 2859.68 677.648L2867.42 671.668C2870.25 669.785 2873.23 667.976 2876.36 666.25C2879.49 664.532 2882.78 662.889 2886.22 661.328C2889.65 659.759 2893.36 658.338 2897.32 657.074C2901.28 655.811 2905.44 654.704 2909.79 653.771C2914.16 652.838 2918.82 652.094 2923.75 651.541C2928.61 651.004 2933.79 650.657 2939.27 650.5L2940.27 650.484C2952.43 650.484 2963.84 651.739 2974.48 654.242L2974.57 654.266C2979.93 655.687 2984.94 657.43 2989.58 659.478C2994.25 661.534 2998.57 663.913 3002.55 666.614C3006.38 669.166 3009.85 672.114 3012.94 675.443C3016.02 678.754 3018.68 682.43 3020.94 686.46C3023.2 690.499 3024.9 694.843 3026.04 699.476C3027.17 704.085 3027.74 708.958 3027.74 714.078C3027.74 726.037 3024.6 736.345 3018.33 744.967C3013.25 751.971 3006.13 757.818 2996.98 762.517C3002.87 764.879 3008.07 767.613 3012.58 770.719C3018.81 775.005 3023.71 779.993 3027.28 785.692C3030.8 791.292 3033.44 797.09 3035.2 803.086C3036.97 809.115 3037.85 815.326 3037.85 821.718C3037.85 831.299 3035.93 840.565 3032.1 849.518L3032.05 849.642C3029.96 853.978 3027.35 858.107 3024.24 862.022C3021.13 865.929 3017.51 869.629 3013.38 873.122L3013.33 873.163C3009.2 876.508 3004.52 879.523 2999.28 882.224C2994.08 884.9 2988.34 887.262 2982.08 889.302C2975.8 891.342 2968.92 892.878 2961.46 893.902C2954.01 894.918 2946.03 895.43 2937.51 895.43C2927.26 895.43 2917.56 894.604 2908.38 892.952C2899.24 891.317 2890.66 888.847 2882.68 885.56C2874.68 882.43 2866.64 878.152 2858.56 872.742C2850.52 867.357 2842.47 860.857 2834.39 853.243L2832.27 851.236L2863.89 819.075L2865.93 821.032C2869.77 824.733 2874.27 828.3 2879.44 831.753C2884.63 835.205 2890.45 838.509 2896.9 841.664C2903.14 844.637 2909.75 846.875 2916.72 848.353C2923.71 849.84 2931.1 850.583 2938.89 850.583C2943.21 850.583 2947.23 850.311 2950.95 849.757C2954.65 849.212 2958.06 848.386 2961.17 847.304C2964.3 846.214 2967.19 844.975 2969.81 843.613C2972.37 842.275 2974.66 840.821 2976.66 839.244C2978.64 837.534 2980.36 835.8 2981.79 834.049C2983.24 832.273 2984.41 830.497 2985.31 828.722C2986.2 826.921 2986.87 825.179 2987.33 823.51C2987.76 821.9 2987.98 820.388 2987.98 818.959C2987.98 817.646 2987.81 816.292 2987.48 814.904C2987.14 813.467 2986.62 811.989 2985.93 810.478L2985.9 810.395C2985.23 808.784 2984.32 807.24 2983.18 805.753C2982 804.225 2980.57 802.764 2978.9 801.376L2978.8 801.294C2977.29 799.923 2975.44 798.626 2973.26 797.437C2971.01 796.198 2968.43 795.074 2965.53 794.059L2965.49 794.05C2962.76 793.043 2959.66 792.283 2956.19 791.779C2952.66 791.267 2948.74 791.003 2944.41 791.003H2904.3V748.006H2932.91C2940.65 748.006 2947.4 747.197 2953.18 745.586C2958.85 744.009 2963.6 741.655 2967.43 738.541L2967.47 738.492C2971.31 735.51 2974.16 732.314 2976.04 728.911C2977.87 725.591 2978.78 722.023 2978.78 718.216C2978.78 709.338 2975.05 703.226 2967.61 699.898C2963.51 698.072 2959.29 696.693 2954.96 695.776C2950.65 694.868 2946.21 694.405 2941.64 694.405C2940.04 694.405 2938.39 694.48 2936.72 694.628C2934.99 694.777 2933.26 694.992 2931.54 695.281L2931.4 695.305C2926.15 695.9 2921.1 696.842 2916.27 698.097C2911.46 699.361 2906.85 700.946 2902.43 702.854C2898.09 704.952 2893.94 707.273 2889.98 709.817C2885.99 712.377 2882.21 715.144 2878.64 718.117L2876.32 720.049L2850.35 685.056L2852.5 683.33ZM2559.65 924.072C2548.5 914.954 2432.84 945.331 2406.21 957.207C2379.93 968.927 2445.18 983.116 2463.22 981.72C2498.2 979.003 2576.43 937.79 2559.65 924.072ZM2688.39 947.668C2674.62 938.269 2543.81 985.255 2514.16 1001.72C2484.89 1017.96 2561.68 1027.68 2582.41 1024.21C2622.59 1017.49 2709.1 961.816 2688.39 947.668ZM2845.74 952.607C2830.9 944.075 2700.21 1002.85 2671.01 1022.15C2642.2 1041.18 2721.74 1044.95 2742.75 1039.71C2783.48 1029.56 2868.06 965.45 2845.74 952.607ZM2947.12 1034.92C2680.61 1262.18 2208.55 1209.2 1975.26 943.398C1777.96 718.612 1750.88 327.366 2059.03 93C1850.96 337.83 1855.11 597.411 2031.2 777.342C2144.99 867.927 2164.6 793.563 2264.63 755.175C2406.54 700.723 2506.08 707.066 2537.27 750.757C2563.45 787.418 2538.57 826.079 2519.38 832.612C2475.05 847.709 2398.64 820.372 2321.47 941.746C2434.26 1062.49 2664.25 1090.76 2837.34 1046.04C2843.03 1044.57 2916.75 1021.72 2922.01 1019.6C2952.89 1007.09 2963.4 1021.02 2947.12 1034.92ZM2143.37 315.308C2162.12 315.308 2179.2 318.446 2194.56 324.723L2194.59 324.732C2202.42 328.019 2209.72 331.95 2216.46 336.501C2223.2 341.043 2229.41 346.238 2235.08 352.061L2237.04 354.092L2202.52 388.64L2200.5 386.278C2197.11 382.289 2193.35 378.704 2189.22 375.541C2185.1 372.37 2180.61 369.603 2175.75 367.249C2170.87 365.027 2165.75 363.367 2160.38 362.261C2155 361.162 2149.33 360.609 2143.37 360.609C2137.86 360.609 2132.6 361.088 2127.58 362.046C2122.57 363.004 2117.79 364.441 2113.21 366.365C2108.62 368.281 2104.4 370.594 2100.52 373.303C2096.64 376.004 2093.08 379.134 2089.83 382.677L2089.75 382.768C2086.38 386.129 2083.36 389.854 2080.7 393.917C2078.05 397.981 2075.75 402.383 2073.84 407.115C2072.08 411.658 2070.75 416.489 2069.86 421.585C2068.97 426.697 2068.53 432.099 2068.53 437.773C2068.53 448.757 2070.45 458.974 2074.29 468.439L2074.31 468.521C2076.08 473.237 2078.24 477.622 2080.79 481.678C2083.32 485.716 2086.24 489.433 2089.54 492.811C2092.85 496.197 2096.49 499.245 2100.44 501.937C2104.4 504.638 2108.66 506.992 2113.25 508.982C2117.79 510.964 2122.57 512.451 2127.59 513.45C2132.61 514.45 2137.88 514.945 2143.37 514.945C2155.2 514.945 2165.97 512.591 2175.69 507.875L2175.77 507.834C2180.78 505.629 2185.34 502.945 2189.45 499.781C2193.54 496.643 2197.2 493.017 2200.43 488.904L2202.42 486.361L2237.05 521.007L2235.08 523.031C2229.44 528.828 2223.25 534.015 2216.52 538.582C2209.8 543.141 2202.57 547.064 2194.83 550.351C2187.03 553.655 2178.85 556.133 2170.28 557.776C2161.7 559.42 2152.72 560.246 2143.37 560.246C2134.48 560.246 2125.87 559.461 2117.55 557.892C2109.23 556.323 2101.23 553.961 2093.55 550.83C2085.87 547.841 2078.74 544.231 2072.16 540.003C2065.54 535.741 2059.47 530.86 2053.98 525.368C2048.49 520.024 2043.59 514.127 2039.26 507.677C2034.94 501.227 2031.21 494.231 2028.08 486.716C2024.93 479.175 2022.58 471.313 2021.01 463.153C2019.44 454.993 2018.65 446.527 2018.65 437.773C2018.65 419.933 2021.79 403.613 2028.08 388.838C2034.35 373.765 2042.99 360.724 2053.98 349.732L2054.01 349.707C2059.51 344.355 2065.56 339.556 2072.16 335.32C2078.76 331.074 2085.89 327.391 2093.55 324.261L2093.57 324.244C2101.08 321.279 2109 319.041 2117.34 317.546C2125.67 316.051 2134.35 315.308 2143.37 315.308ZM3269.18 267.075V305.496H3185.08V267.075H3269.18ZM2387.51 315.308C2396.53 315.308 2405.21 316.051 2413.53 317.546C2421.87 319.041 2429.8 321.279 2437.3 324.244L2437.33 324.261C2452.68 330.529 2465.87 339.011 2476.87 349.707C2482.53 355.216 2487.54 361.245 2491.85 367.769C2496.19 374.31 2499.84 381.347 2502.82 388.879C2505.95 396.263 2508.31 404.026 2509.87 412.17C2511.43 420.33 2512.22 428.869 2512.22 437.773C2512.22 455.323 2509.08 471.635 2502.8 486.716C2499.67 494.24 2495.94 501.227 2491.61 507.677C2487.3 514.127 2482.38 520.024 2476.89 525.36C2471.4 530.86 2465.34 535.749 2458.72 540.003C2452.15 544.231 2445.02 547.832 2437.34 550.814C2429.81 553.961 2421.88 556.323 2413.56 557.892C2405.24 559.461 2396.55 560.246 2387.51 560.246C2378.62 560.246 2370.01 559.461 2361.69 557.892C2353.37 556.323 2345.37 553.961 2337.7 550.83C2330.02 547.841 2322.89 544.231 2316.31 540.003C2309.69 535.741 2303.62 530.86 2298.13 525.368C2292.64 520.024 2287.73 514.127 2283.41 507.677C2279.08 501.227 2275.35 494.231 2272.22 486.716C2269.08 479.175 2266.72 471.313 2265.16 463.153C2263.58 454.993 2262.8 446.527 2262.8 437.773C2262.8 419.933 2265.94 403.613 2272.22 388.838C2278.5 373.765 2287.13 360.724 2298.13 349.732L2298.15 349.707C2303.66 344.355 2309.71 339.556 2316.31 335.32C2322.9 331.074 2330.03 327.391 2337.7 324.261L2337.72 324.244C2345.22 321.279 2353.15 319.041 2361.49 317.546C2369.82 316.051 2378.49 315.308 2387.51 315.308ZM2387.51 360.609C2382.01 360.609 2376.74 361.088 2371.73 362.046C2366.72 363.004 2361.93 364.441 2357.35 366.365C2352.77 368.281 2348.54 370.594 2344.66 373.303C2340.79 376.004 2337.22 379.134 2333.98 382.677L2333.89 382.768C2330.53 386.129 2327.51 389.854 2324.85 393.917C2322.19 397.981 2319.9 402.383 2317.98 407.115C2316.22 411.658 2314.89 416.489 2314.01 421.585C2313.12 426.697 2312.67 432.099 2312.67 437.773C2312.67 448.757 2314.6 458.974 2318.44 468.439L2318.46 468.521C2320.23 473.237 2322.39 477.622 2324.92 481.678C2327.47 485.716 2330.39 489.433 2333.68 492.811C2337 496.197 2340.63 499.245 2344.59 501.937C2348.54 504.638 2352.81 506.992 2357.39 508.982C2361.93 510.964 2366.72 512.451 2371.74 513.45C2376.76 514.45 2382.03 514.945 2387.51 514.945C2393 514.945 2398.26 514.45 2403.28 513.45C2408.3 512.451 2413.09 510.964 2417.63 508.982C2422.21 506.992 2426.48 504.638 2430.44 501.937C2434.39 499.245 2438.02 496.197 2441.33 492.811C2447.96 486.022 2453.2 477.895 2457.04 468.439C2458.81 463.747 2460.13 458.841 2461.01 453.737C2461.9 448.625 2462.35 443.298 2462.35 437.773C2462.35 426.483 2460.58 416.258 2457.05 407.107C2455.13 402.383 2452.83 397.981 2450.17 393.917C2447.52 389.879 2444.5 386.154 2441.12 382.768L2441.04 382.677C2437.8 379.134 2434.23 376.012 2430.36 373.303C2426.5 370.602 2422.26 368.29 2417.67 366.365C2413.09 364.441 2408.3 363.004 2403.29 362.046C2398.28 361.088 2393.01 360.609 2387.51 360.609ZM2953.86 315.308C2970.8 315.308 2986.58 318.372 3001.18 324.5C3008.49 327.573 3015.29 331.223 3021.56 335.46C3027.84 339.705 3033.63 344.553 3038.91 349.988C3049.44 360.84 3057.53 373.798 3063.19 388.871C3066.17 396.246 3068.41 404.018 3069.9 412.203C3071.39 420.371 3072.14 428.903 3072.14 437.773V457.206H2922.49V414.664H3020.65C3016.82 398.782 3009.4 385.881 2998.39 375.962C2992.4 370.701 2985.7 366.753 2978.31 364.119C2970.89 361.468 2962.74 360.146 2953.86 360.146C2948.5 360.146 2943.46 360.625 2938.74 361.575C2934.02 362.525 2929.57 363.954 2925.4 365.861C2921.21 367.761 2917.34 370.041 2913.78 372.683C2910.24 375.318 2907 378.324 2904.07 381.686L2904.03 381.744C2900.94 385.13 2898.22 388.805 2895.87 392.778C2893.52 396.75 2891.52 401.037 2889.9 405.612C2888.26 410.221 2887.04 415.036 2886.23 420.049C2885.42 425.079 2885.01 430.373 2885.01 435.939C2885.01 447.527 2886.93 458.057 2890.77 467.522L2890.81 467.621C2892.58 472.494 2894.75 477.036 2897.34 481.248C2899.9 485.419 2902.87 489.276 2906.23 492.794C2909.65 496.197 2913.35 499.278 2917.32 501.995C2921.31 504.729 2925.61 507.14 2930.21 509.222C2934.76 511.121 2939.53 512.55 2944.52 513.508C2949.54 514.466 2954.8 514.945 2960.3 514.945C2964.91 514.945 2969.25 514.631 2973.31 514.003C2977.32 513.392 2981.1 512.459 2984.64 511.204C2988.23 509.932 2991.56 508.569 2994.6 507.115C2997.63 505.678 3000.4 504.142 3002.88 502.532L3002.96 502.49C3005.6 500.872 3007.99 499.22 3010.13 497.518C3012.23 495.85 3014.08 494.141 3015.67 492.414L3015.75 492.324C3019.41 488.665 3022.12 485.799 3023.87 483.759L3025.59 481.752L3062.34 508.536L3060.47 510.873C3056.58 515.688 3052.68 520.09 3048.78 524.08C3044.89 528.044 3040.97 531.612 3037.03 534.767C3033.1 537.922 3029.13 540.746 3025.16 543.232C3021.13 545.768 3017.07 547.973 3012.99 549.856C3008.91 551.747 3004.73 553.366 3000.47 554.704C2996.19 556.05 2991.86 557.116 2987.48 557.9H2987.45C2982.91 558.685 2978.22 559.271 2973.4 559.659C2968.56 560.048 2963.58 560.246 2958.46 560.246C2940.93 560.246 2924.63 557.182 2909.56 551.062C2902.07 548.014 2895.04 544.339 2888.5 540.044C2881.95 535.741 2875.93 530.844 2870.46 525.368C2859.46 514.367 2850.83 501.326 2844.55 486.253C2841.41 478.721 2839.06 470.817 2837.49 462.566C2835.92 454.324 2835.13 445.751 2835.13 436.856C2835.13 419.322 2838.12 403.176 2844.08 388.409C2847.06 381.025 2850.59 374.12 2854.66 367.703C2858.74 361.269 2863.37 355.298 2868.56 349.798L2868.62 349.732C2873.95 344.388 2879.76 339.598 2886.05 335.353C2892.31 331.124 2899.06 327.432 2906.29 324.294L2906.34 324.269C2913.58 321.279 2921.16 319.033 2929.09 317.546C2937.02 316.051 2945.28 315.308 2953.86 315.308ZM3172.23 322.774V478.159L3280.04 319.908H3327.63C3327.68 398.485 3327.68 477.069 3327.63 555.645H3278.68V397.394L3170.87 555.645H3123.27V319.908H3172.23V322.774ZM3494.89 315.308C3513.65 315.308 3530.72 318.446 3546.08 324.723L3546.11 324.732C3553.94 328.019 3561.24 331.95 3567.99 336.501C3574.73 341.043 3580.93 346.238 3586.6 352.061L3588.56 354.092L3554.04 388.64L3552.02 386.278C3548.63 382.289 3544.87 378.704 3540.74 375.541C3536.62 372.37 3532.13 369.603 3527.28 367.249C3522.4 365.027 3517.27 363.367 3511.9 362.261C3506.53 361.162 3500.85 360.609 3494.89 360.609C3489.38 360.609 3484.12 361.088 3479.11 362.046C3474.09 363.004 3469.31 364.441 3464.73 366.365C3460.14 368.281 3455.92 370.594 3452.04 373.303C3448.17 376.004 3444.6 379.134 3441.35 382.677L3441.27 382.768C3437.9 386.129 3434.88 389.854 3432.22 393.917C3429.57 397.981 3427.27 402.383 3425.36 407.115C3423.6 411.658 3422.27 416.489 3421.39 421.585C3420.49 426.697 3420.05 432.099 3420.05 437.773C3420.05 448.757 3421.97 458.974 3425.82 468.439L3425.84 468.521C3427.6 473.237 3429.76 477.622 3432.31 481.678C3434.84 485.716 3437.76 489.433 3441.07 492.811C3444.38 496.197 3448.01 499.245 3451.96 501.937C3455.92 504.638 3460.18 506.992 3464.77 508.982C3469.31 510.964 3474.09 512.451 3479.11 513.45C3484.14 514.45 3489.4 514.945 3494.89 514.945C3506.72 514.945 3517.49 512.591 3527.21 507.875L3527.3 507.834C3532.3 505.629 3536.86 502.945 3540.97 499.781C3545.06 496.643 3548.72 493.017 3551.95 488.904L3553.94 486.361L3588.57 521.007L3586.6 523.031C3580.96 528.828 3574.77 534.015 3568.04 538.582C3561.33 543.141 3554.1 547.064 3546.35 550.351C3538.55 553.655 3530.37 556.133 3521.8 557.776C3513.22 559.42 3504.25 560.246 3494.89 560.246C3486 560.246 3477.39 559.461 3469.07 557.892C3460.75 556.323 3452.75 553.961 3445.07 550.83C3437.39 547.841 3430.26 544.231 3423.68 540.003C3417.06 535.741 3410.99 530.86 3405.5 525.368C3400.01 520.024 3395.11 514.127 3390.78 507.677C3386.46 501.227 3382.73 494.231 3379.6 486.716C3376.45 479.175 3374.1 471.313 3372.53 463.153C3370.96 454.993 3370.18 446.527 3370.18 437.773C3370.18 419.933 3373.32 403.613 3379.6 388.838C3385.87 373.765 3394.51 360.724 3405.5 349.732L3405.54 349.707C3411.03 344.355 3417.08 339.556 3423.68 335.32C3430.28 331.074 3437.41 327.391 3445.07 324.261L3445.09 324.244C3452.6 321.279 3460.52 319.041 3468.87 317.546C3477.19 316.051 3485.87 315.308 3494.89 315.308ZM3621.18 319.908H3822.22V365.663H3744.52V555.645H3695.56V365.663H3618.31V319.908H3621.18ZM3969.24 319.908C3980.72 319.908 3991.05 321.411 4000.24 324.426C4009.5 327.457 4017.57 332.024 4024.47 338.111L4024.53 338.161C4031.25 344.405 4036.31 351.524 4039.69 359.502C4043.07 367.464 4044.75 376.227 4044.75 385.799C4044.75 391.068 4044.23 395.924 4043.18 400.359C4042.12 404.861 4040.52 408.924 4038.37 412.55C4036.27 416.109 4033.85 419.347 4031.1 422.262C4029.62 423.815 4028.06 425.285 4026.42 426.656C4031.85 428.63 4036.69 431.05 4040.95 433.908C4046.62 437.707 4051.24 442.299 4054.81 447.651C4058.36 452.821 4061.03 458.635 4062.8 465.085C4064.56 471.486 4065.45 478.49 4065.45 486.08C4065.45 508.396 4058.53 525.673 4044.7 537.897L4044.67 537.93C4037.78 543.86 4029.67 548.303 4020.33 551.252C4011.09 554.184 4000.64 555.645 3989.01 555.645H3860.62V319.908H3969.24ZM3908.66 454.91V510.807H3986.25C3990.37 510.807 3994.24 510.171 3997.83 508.899C4001.41 507.636 4004.77 505.728 4007.88 503.176C4010.91 500.698 4013.18 497.791 4014.68 494.454C4016.19 491.085 4016.95 487.211 4016.95 482.859C4016.95 478.936 4016.25 475.31 4014.88 471.99C4013.49 468.678 4011.39 465.606 4008.59 462.806C4005.83 460.188 4002.62 458.222 3998.97 456.909C3995.24 455.571 3990.99 454.91 3986.25 454.91H3946.98V416.043H3959.58C3972.89 416.043 3982.41 413.186 3988.13 407.454C3993.86 401.73 3996.71 395.123 3996.71 387.632C3996.71 383.899 3996.07 380.612 3994.79 377.771C3993.52 374.971 3991.61 372.56 3989.08 370.561L3989.02 370.511C3986.58 368.48 3983.45 366.935 3979.63 365.895C3975.7 364.821 3971.01 364.284 3965.56 364.284H3908.66V454.91ZM4159.24 322.774V478.159L4267.05 319.908H4314.65V555.645H4265.69V397.394L4157.88 555.645H4110.28V319.908H4159.24V322.774ZM4475.92 315.308C4492.86 315.308 4508.63 318.372 4523.24 324.5C4530.54 327.573 4537.35 331.223 4543.62 335.46C4549.9 339.705 4555.68 344.553 4560.96 349.988C4571.5 360.84 4579.59 373.798 4585.25 388.871C4588.23 396.246 4590.47 404.018 4591.95 412.203C4593.45 420.371 4594.2 428.903 4594.2 437.773V457.206H4444.55V414.664H4542.7C4538.87 398.782 4531.46 385.881 4520.45 375.962C4514.45 370.701 4507.76 366.753 4500.37 364.119C4492.95 361.468 4484.79 360.146 4475.92 360.146C4470.56 360.146 4465.52 360.625 4460.8 361.575C4456.07 362.525 4451.62 363.954 4447.45 365.861C4443.27 367.761 4439.4 370.041 4435.84 372.683C4432.3 375.318 4429.05 378.324 4426.13 381.686L4426.08 381.744C4422.99 385.13 4420.28 388.805 4417.93 392.778C4415.57 396.75 4413.58 401.037 4411.96 405.612C4410.31 410.221 4409.09 415.036 4408.28 420.049C4407.48 425.079 4407.06 430.373 4407.06 435.939C4407.06 447.527 4408.99 458.057 4412.82 467.522L4412.86 467.621C4414.63 472.494 4416.81 477.036 4419.4 481.248C4421.95 485.419 4424.93 489.276 4428.29 492.794C4431.7 496.197 4435.4 499.278 4439.37 501.995C4443.37 504.729 4447.67 507.14 4452.27 509.222C4456.82 511.121 4461.59 512.55 4466.57 513.508C4471.59 514.466 4476.86 514.945 4482.36 514.945C4486.96 514.945 4491.31 514.631 4495.37 514.003C4499.38 513.392 4503.16 512.459 4506.69 511.204C4510.29 509.932 4513.61 508.569 4516.66 507.115C4519.69 505.678 4522.45 504.142 4524.94 502.532L4525.01 502.49C4527.65 500.872 4530.05 499.22 4532.19 497.518C4534.29 495.85 4536.14 494.141 4537.73 492.414L4537.81 492.324C4541.46 488.665 4544.18 485.799 4545.93 483.759L4547.65 481.752L4584.4 508.536L4582.53 510.873C4578.64 515.688 4574.74 520.09 4570.84 524.08C4566.95 528.044 4563.03 531.612 4559.09 534.767C4555.14 537.922 4551.19 540.746 4547.22 543.232C4543.19 545.768 4539.13 547.973 4535.05 549.856C4530.96 551.747 4526.79 553.366 4522.53 554.704C4518.25 556.05 4513.92 557.116 4509.53 557.9H4509.51C4504.97 558.685 4500.28 559.271 4495.46 559.659C4490.61 560.048 4485.64 560.246 4480.52 560.246C4462.99 560.246 4446.69 557.182 4431.62 551.062C4424.13 548.014 4417.09 544.339 4410.55 540.044C4404.01 535.741 4397.99 530.844 4392.52 525.368C4381.52 514.367 4372.89 501.326 4366.6 486.253C4363.47 478.721 4361.11 470.817 4359.55 462.566C4357.98 454.324 4357.18 445.751 4357.18 436.856C4357.18 419.322 4360.17 403.176 4366.14 388.409C4369.12 381.025 4372.65 374.12 4376.72 367.703C4380.79 361.269 4385.43 355.298 4390.62 349.798L4390.68 349.732C4396.01 344.388 4401.82 339.598 4408.11 335.353C4414.37 331.124 4421.11 327.432 4428.34 324.294L4428.39 324.269C4435.63 321.279 4443.22 319.033 4451.15 317.546C4459.08 316.051 4467.34 315.308 4475.92 315.308ZM2766.42 322.774V511.972H2809.17L2809.55 597.428H2759.83L2760.22 557.272H2578.82L2578.77 597.428L2529.87 597.403V511.972H2567.79C2570.07 510.502 2572.18 508.751 2574.12 506.719C2576.26 504.456 2578.21 500.219 2579.93 497.279C2581.69 494.273 2583.24 491.118 2584.57 487.831C2585.9 484.527 2587 481.108 2587.89 477.565C2588.79 473.964 2589.56 470.346 2590.2 466.721C2590.85 463.062 2591.36 459.444 2591.73 455.885C2592.11 452.267 2592.39 448.898 2592.58 445.784C2592.76 442.761 2592.85 439.937 2592.85 437.318V319.908H2766.42V322.774ZM2641.82 430.876C2641.82 440.127 2641.39 448.889 2640.53 457.157C2639.68 465.383 2638.39 473.097 2636.67 480.282C2634.95 487.682 2632.78 494.157 2630.15 499.715C2628.26 503.738 2626.13 508.908 2623.75 511.972H2717.46V365.209H2641.82V430.876ZM3095 679.489C3109.93 669.529 3125.54 662.203 3141.79 657.512C3149.91 655.167 3157.98 653.407 3165.96 652.243C3174.01 651.078 3182 650.484 3189.93 650.484C3204.46 650.484 3217.5 652.342 3229.07 656.042C3240.73 659.767 3250.84 665.358 3259.4 672.816L3259.43 672.833C3268.05 680.497 3274.51 690.003 3278.82 701.335C3283.09 712.559 3285.22 725.55 3285.22 740.301V890.829H3237.58L3237.58 865.995C3233.45 870 3229.06 873.618 3224.44 876.847C3218.44 881.026 3212.07 884.536 3205.31 887.369C3198.42 890.351 3191.33 892.597 3184.07 894.092C3176.8 895.595 3169.4 896.347 3161.88 896.347C3155.81 896.347 3149.96 895.909 3144.32 895.033C3138.68 894.158 3133.33 892.853 3128.31 891.127L3128.24 891.094C3123.17 889.194 3118.46 886.973 3114.13 884.454C3109.76 881.91 3105.74 879.044 3102.08 875.864L3102.03 875.815C3098.36 872.478 3095.09 868.794 3092.2 864.789C3089.33 860.791 3086.85 856.48 3084.79 851.863C3082.7 847.197 3081.13 842.283 3080.1 837.113C3079.07 831.951 3078.56 826.508 3078.56 820.801C3078.56 809.206 3080.57 798.832 3084.61 789.681C3088.65 780.497 3094.73 772.577 3102.83 765.92C3110.87 759.305 3120.58 754.349 3131.95 751.062C3143.23 747.8 3156.12 746.165 3170.62 746.165H3197.86V789.169H3169.7C3162.9 789.169 3156.89 789.863 3151.71 791.251C3146.61 792.613 3142.3 794.637 3138.78 797.313C3135.34 799.931 3132.75 803.102 3131.03 806.819C3129.3 810.568 3128.43 814.921 3128.43 819.876C3128.43 824.708 3129.27 828.994 3130.93 832.752C3132.59 836.477 3135.09 839.739 3138.42 842.522C3145.24 848.205 3154.44 851.046 3166.02 851.046C3174.85 851.046 3183.54 849.278 3192.07 845.752L3192.14 845.719C3196.44 844.083 3200.48 842.159 3204.23 839.954C3207.98 837.749 3211.48 835.238 3214.73 832.43C3217.98 829.622 3220.91 826.616 3223.52 823.419C3226.12 820.24 3228.42 816.829 3230.41 813.211C3232.37 809.652 3233.84 806.051 3234.81 802.4C3235.78 798.791 3236.26 795.099 3236.26 791.358V740.301C3236.26 725.343 3232.24 714.202 3224.21 706.885C3216.1 699.485 3203.75 695.785 3187.17 695.785C3172.81 695.785 3159.85 698.171 3148.25 702.92L3148.21 702.945C3142.48 705.208 3137.15 707.686 3132.22 710.378C3127.28 713.079 3122.71 715.994 3118.54 719.124L3115.96 721.057L3092.77 680.984L3095 679.489ZM3390.51 657.958V743.406H3496.96V655.092H3545.92V890.829H3496.96V788.707H3390.51V890.829H3341.55V655.092H3390.51V657.958ZM3703.39 843.935C3692.08 867.531 3678.06 883.479 3666.41 890.829L3599.63 890.904C3629.84 872.792 3658.23 830.522 3664.61 809.974C3657.15 809.957 3645.11 808.735 3634.19 801.26C3627.3 797.015 3621.44 791.68 3616.63 785.263C3611.67 778.713 3607.95 771.189 3605.48 762.716C3603.02 754.308 3601.79 744.992 3601.79 734.775C3601.79 710.725 3608.64 691.366 3622.33 676.706C3635.77 662.294 3654.26 655.092 3677.77 655.092H3801.55V657.958V890.829H3752.6V812.625V700.385H3681.44C3677.4 700.385 3673.64 701.145 3670.18 702.673C3666.7 704.2 3663.48 706.521 3660.52 709.61L3660.48 709.668C3657.57 712.583 3655.37 716.102 3653.91 720.206C3652.42 724.41 3651.66 729.275 3651.66 734.775C3651.66 745.033 3654.6 753.094 3660.47 758.974C3663.27 761.766 3666.41 763.855 3669.86 765.243C3673.33 766.63 3677.2 767.324 3681.44 767.324H3715.77C3715.69 813.063 3717.34 814.805 3703.39 843.935ZM3847.31 655.092H4048.34L4048.35 700.847H3970.64V890.829H3921.68V700.847H3844.44V655.092H3847.31ZM4194.52 650.484C4203.53 650.484 4212.21 651.235 4220.54 652.73C4228.88 654.225 4236.81 656.455 4244.31 659.428L4244.33 659.437C4259.69 665.713 4272.87 674.195 4283.87 684.883C4289.54 690.4 4294.54 696.42 4298.86 702.953C4303.2 709.494 4306.85 716.531 4309.83 724.063C4312.96 731.447 4315.31 739.21 4316.87 747.346C4318.44 755.514 4319.23 764.054 4319.23 772.957C4319.23 790.499 4316.09 806.819 4309.81 821.891C4306.68 829.415 4302.95 836.411 4298.62 842.861C4294.3 849.303 4289.39 855.2 4283.9 860.544C4278.41 866.044 4272.35 870.925 4265.72 875.187C4259.15 879.407 4252.02 883.016 4244.35 885.998C4236.82 889.145 4228.88 891.499 4220.56 893.068C4212.25 894.645 4203.56 895.43 4194.52 895.43C4185.63 895.43 4177.02 894.645 4168.7 893.068C4160.38 891.499 4152.37 889.145 4144.7 886.015C4137.03 883.025 4129.89 879.416 4123.32 875.187C4116.69 870.925 4110.63 866.044 4105.13 860.544C4099.65 855.2 4094.74 849.303 4090.41 842.861C4086.09 836.411 4082.35 829.415 4079.22 821.891C4076.09 814.351 4073.73 806.497 4072.16 798.337C4070.59 790.169 4069.81 781.711 4069.81 772.957C4069.81 755.109 4072.95 738.789 4079.22 724.022C4085.51 708.941 4094.14 695.9 4105.13 684.907L4105.16 684.883C4110.67 679.539 4116.72 674.74 4123.32 670.495C4129.9 666.258 4137.04 662.567 4144.7 659.437L4144.73 659.428C4152.23 656.455 4160.16 654.225 4168.5 652.73C4176.83 651.235 4185.5 650.484 4194.52 650.484ZM4194.52 695.785C4189.01 695.785 4183.75 696.264 4178.73 697.23C4173.73 698.18 4168.93 699.625 4164.36 701.541C4159.78 703.457 4155.54 705.778 4151.67 708.487C4147.79 711.188 4144.23 714.318 4140.99 717.861L4140.9 717.943C4137.53 721.313 4134.52 725.038 4131.85 729.101C4129.2 733.165 4126.91 737.567 4124.98 742.291C4123.22 746.842 4121.9 751.673 4121.01 756.761C4120.13 761.873 4119.68 767.275 4119.68 772.957C4119.68 783.933 4121.61 794.158 4125.45 803.623L4125.47 803.697C4127.24 808.413 4129.39 812.807 4131.93 816.853C4134.47 820.9 4137.39 824.617 4140.69 827.995C4144 831.381 4147.64 834.42 4151.59 837.121C4155.55 839.822 4159.82 842.167 4164.39 844.166C4168.93 846.14 4173.72 847.635 4178.75 848.626C4183.77 849.625 4189.03 850.129 4194.52 850.129C4200.01 850.129 4205.26 849.625 4210.29 848.626C4215.31 847.635 4220.1 846.14 4224.64 844.166C4229.21 842.167 4233.49 839.822 4237.44 837.121C4241.39 834.429 4245.03 831.381 4248.34 827.995C4254.97 821.206 4260.21 813.079 4264.05 803.623C4265.81 798.923 4267.13 794.017 4268.02 788.921C4268.9 783.809 4269.35 778.482 4269.35 772.957C4269.35 761.667 4267.58 751.442 4264.05 742.291C4262.13 737.567 4259.83 733.165 4257.18 729.101C4254.53 725.054 4251.51 721.33 4248.13 717.943L4248.04 717.861C4244.8 714.318 4241.24 711.188 4237.37 708.487C4233.5 705.786 4229.26 703.465 4224.67 701.541C4220.1 699.625 4215.3 698.18 4210.3 697.23C4205.28 696.264 4200.02 695.785 4194.52 695.785ZM4474.99 650.484C4493.75 650.484 4510.81 653.622 4526.18 659.899L4526.21 659.916C4534.04 663.203 4541.33 667.126 4548.09 671.676C4554.83 676.227 4561.03 681.414 4566.69 687.245L4568.67 689.268L4534.13 723.824L4532.13 721.462C4528.74 717.473 4524.97 713.888 4520.84 710.717C4516.72 707.554 4512.23 704.787 4507.37 702.425C4502.49 700.211 4497.37 698.551 4492 697.445C4486.63 696.338 4480.95 695.785 4474.99 695.785C4469.48 695.785 4464.22 696.264 4459.2 697.23C4454.2 698.18 4449.4 699.625 4444.83 701.541C4440.25 703.457 4436.01 705.778 4432.14 708.487C4428.26 711.188 4424.7 714.318 4421.46 717.861L4421.37 717.943C4418 721.313 4414.99 725.038 4412.32 729.101C4409.67 733.165 4407.38 737.567 4405.45 742.291C4403.69 746.842 4402.37 751.673 4401.48 756.761C4400.6 761.873 4400.15 767.275 4400.15 772.957C4400.15 783.933 4402.08 794.158 4405.91 803.623L4405.94 803.697C4407.71 808.413 4409.86 812.807 4412.4 816.853C4414.94 820.9 4417.86 824.617 4421.16 827.995C4424.47 831.381 4428.11 834.42 4432.06 837.121C4436.02 839.822 4440.29 842.167 4444.86 844.166C4449.4 846.14 4454.19 847.635 4459.22 848.626C4464.24 849.625 4469.5 850.129 4474.99 850.129C4486.82 850.129 4497.6 847.767 4507.31 843.059L4507.4 843.018C4512.4 840.805 4516.96 838.12 4521.07 834.965C4525.16 831.827 4528.82 828.193 4532.05 824.088L4534.04 821.545L4568.67 856.183L4566.69 858.215C4561.05 864.012 4554.87 869.199 4548.14 873.766C4541.42 878.317 4534.19 882.248 4526.46 885.527C4518.66 888.839 4510.47 891.317 4501.91 892.952C4493.32 894.604 4484.35 895.43 4474.99 895.43C4466.1 895.43 4457.49 894.645 4449.17 893.068C4440.84 891.499 4432.84 889.145 4425.17 886.015C4417.5 883.025 4410.36 879.416 4403.78 875.187C4397.16 870.925 4391.1 866.044 4385.6 860.544C4380.12 855.2 4375.21 849.303 4370.89 842.861C4366.56 836.411 4362.82 829.415 4359.69 821.891C4356.56 814.351 4354.2 806.497 4352.63 798.337C4351.06 790.169 4350.28 781.711 4350.28 772.957C4350.28 755.109 4353.42 738.789 4359.69 724.022C4365.98 708.941 4374.61 695.9 4385.6 684.907L4385.63 684.883C4391.14 679.539 4397.19 674.74 4403.78 670.495C4410.37 666.258 4417.51 662.567 4425.17 659.437L4425.2 659.428C4432.69 656.455 4440.62 654.225 4448.97 652.73C4457.3 651.235 4465.97 650.484 4474.99 650.484ZM4800.69 655.092V700.847H4722.99V890.829H4674.03V700.847H4596.79V655.092H4800.69ZM4887.59 657.958V813.343L4995.4 655.092H5043V890.829H4994.04V732.57L4886.23 890.829H4838.63V655.092H4887.59V657.958Z" fill="#12AE83"></path><g filter="url(#filter0_d_2188_58)"><path d="M1480 5V1266" stroke="#12AE83" stroke-width="10" stroke-linecap="round"></path></g><g filter="url(#filter1_d_2188_58)"><path d="M5390 5V1266" stroke="#12AE83" stroke-width="10" stroke-linecap="round"></path></g><defs><filter id="filter0_d_2188_58" x="1471" y="0" width="18" height="1279" filterUnits="userSpaceOnUse" color-interpolation-filters="sRGB"><feFlood flood-opacity="0" result="BackgroundImageFix"></feFlood><feColorMatrix in="SourceAlpha" type="matrix" values="0 0 0 0 0 0 0 0 0 0 0 0 0 0 0 0 0 0 127 0" result="hardAlpha"></feColorMatrix><feOffset dy="4"></feOffset><feGaussianBlur stdDeviation="2"></feGaussianBlur><feComposite in2="hardAlpha" operator="out"></feComposite><feColorMatrix type="matrix" values="0 0 0 0 0 0 0 0 0 0 0 0 0 0 0 0 0 0 0.25 0"></feColorMatrix><feBlend mode="normal" in2="BackgroundImageFix" result="effect1_dropShadow_2188_58"></feBlend><feBlend mode="normal" in="SourceGraphic" in2="effect1_dropShadow_2188_58" result="shape"></feBlend></filter><filter id="filter1_d_2188_58" x="5381" y="0" width="18" height="1279" filterUnits="userSpaceOnUse" color-interpolation-filters="sRGB"><feFlood flood-opacity="0" result="BackgroundImageFix"></feFlood><feColorMatrix in="SourceAlpha" type="matrix" values="0 0 0 0 0 0 0 0 0 0 0 0 0 0 0 0 0 0 127 0" result="hardAlpha"></feColorMatrix><feOffset dy="4"></feOffset><feGaussianBlur stdDeviation="2"></feGaussianBlur><feComposite in2="hardAlpha" operator="out"></feComposite><feColorMatrix type="matrix" values="0 0 0 0 0 0 0 0 0 0 0 0 0 0 0 0 0 0 0.25 0"></feColorMatrix><feBlend mode="normal" in2="BackgroundImageFix" result="effect1_dropShadow_2188_58"></feBlend><feBlend mode="normal" in="SourceGraphic" in2="effect1_dropShadow_2188_58" result="shape"></feBlend></filter></defs></svg> 